<svg xmlns="http://www.w3.org/2000/svg" xmlns:xlink="http://www.w3.org/1999/xlink" width="500" zoomAndPan="magnify" viewBox="0 0 375 374.999991" height="500" preserveAspectRatio="xMidYMid meet" version="1.0"><defs><g/><linearGradient x1="0" gradientTransform="matrix(0.75, 0, 0, 0.75, 0.0000045, 0)" y1="250" x2="499.999979" gradientUnits="userSpaceOnUse" y2="250" id="3daadd27fa"><stop stop-opacity="1" stop-color="rgb(36.499023%, 87.799072%, 90.19928%)" offset="0"/><stop stop-opacity="1" stop-color="rgb(36.355591%, 87.568665%, 90.110779%)" offset="0.00390625"/><stop stop-opacity="1" stop-color="rgb(36.213684%, 87.339783%, 90.023804%)" offset="0.0078125"/><stop stop-opacity="1" stop-color="rgb(36.070251%, 87.109375%, 89.936829%)" offset="0.0117187"/><stop stop-opacity="1" stop-color="rgb(35.928345%, 86.880493%, 89.849854%)" offset="0.015625"/><stop stop-opacity="1" stop-color="rgb(35.786438%, 86.650085%, 89.761353%)" offset="0.0195312"/><stop stop-opacity="1" stop-color="rgb(35.644531%, 86.421204%, 89.674377%)" offset="0.0234375"/><stop stop-opacity="1" stop-color="rgb(35.501099%, 86.190796%, 89.585876%)" offset="0.0273438"/><stop stop-opacity="1" stop-color="rgb(35.359192%, 85.961914%, 89.498901%)" offset="0.03125"/><stop stop-opacity="1" stop-color="rgb(35.215759%, 85.731506%, 89.411926%)" offset="0.0351562"/><stop stop-opacity="1" stop-color="rgb(35.073853%, 85.502625%, 89.324951%)" offset="0.0390625"/><stop stop-opacity="1" stop-color="rgb(34.93042%, 85.272217%, 89.23645%)" offset="0.0429687"/><stop stop-opacity="1" stop-color="rgb(34.788513%, 85.043335%, 89.149475%)" offset="0.046875"/><stop stop-opacity="1" stop-color="rgb(34.645081%, 84.812927%, 89.060974%)" offset="0.0507812"/><stop stop-opacity="1" stop-color="rgb(34.503174%, 84.584045%, 88.973999%)" offset="0.0546875"/><stop stop-opacity="1" stop-color="rgb(34.359741%, 84.353638%, 88.885498%)" offset="0.0585938"/><stop stop-opacity="1" stop-color="rgb(34.217834%, 84.124756%, 88.798523%)" offset="0.0625"/><stop stop-opacity="1" stop-color="rgb(34.074402%, 83.894348%, 88.711548%)" offset="0.0664062"/><stop stop-opacity="1" stop-color="rgb(33.932495%, 83.665466%, 88.624573%)" offset="0.0703125"/><stop stop-opacity="1" stop-color="rgb(33.789062%, 83.435059%, 88.536072%)" offset="0.0742187"/><stop stop-opacity="1" stop-color="rgb(33.647156%, 83.206177%, 88.449097%)" offset="0.078125"/><stop stop-opacity="1" stop-color="rgb(33.503723%, 82.975769%, 88.360596%)" offset="0.0820312"/><stop stop-opacity="1" stop-color="rgb(33.361816%, 82.745361%, 88.273621%)" offset="0.0859375"/><stop stop-opacity="1" stop-color="rgb(33.21991%, 82.514954%, 88.186646%)" offset="0.0898437"/><stop stop-opacity="1" stop-color="rgb(33.078003%, 82.286072%, 88.09967%)" offset="0.09375"/><stop stop-opacity="1" stop-color="rgb(32.93457%, 82.055664%, 88.011169%)" offset="0.0976562"/><stop stop-opacity="1" stop-color="rgb(32.792664%, 81.826782%, 87.924194%)" offset="0.101562"/><stop stop-opacity="1" stop-color="rgb(32.649231%, 81.596375%, 87.835693%)" offset="0.105469"/><stop stop-opacity="1" stop-color="rgb(32.507324%, 81.367493%, 87.748718%)" offset="0.109375"/><stop stop-opacity="1" stop-color="rgb(32.363892%, 81.137085%, 87.661743%)" offset="0.113281"/><stop stop-opacity="1" stop-color="rgb(32.221985%, 80.908203%, 87.574768%)" offset="0.117188"/><stop stop-opacity="1" stop-color="rgb(32.078552%, 80.677795%, 87.486267%)" offset="0.121094"/><stop stop-opacity="1" stop-color="rgb(31.936646%, 80.448914%, 87.399292%)" offset="0.125"/><stop stop-opacity="1" stop-color="rgb(31.793213%, 80.218506%, 87.310791%)" offset="0.128906"/><stop stop-opacity="1" stop-color="rgb(31.651306%, 79.989624%, 87.223816%)" offset="0.132812"/><stop stop-opacity="1" stop-color="rgb(31.507874%, 79.759216%, 87.136841%)" offset="0.136719"/><stop stop-opacity="1" stop-color="rgb(31.365967%, 79.530334%, 87.049866%)" offset="0.140625"/><stop stop-opacity="1" stop-color="rgb(31.222534%, 79.299927%, 86.961365%)" offset="0.144531"/><stop stop-opacity="1" stop-color="rgb(31.080627%, 79.071045%, 86.87439%)" offset="0.148437"/><stop stop-opacity="1" stop-color="rgb(30.938721%, 78.840637%, 86.785889%)" offset="0.152344"/><stop stop-opacity="1" stop-color="rgb(30.796814%, 78.611755%, 86.698914%)" offset="0.15625"/><stop stop-opacity="1" stop-color="rgb(30.653381%, 78.381348%, 86.611938%)" offset="0.160156"/><stop stop-opacity="1" stop-color="rgb(30.511475%, 78.152466%, 86.524963%)" offset="0.164062"/><stop stop-opacity="1" stop-color="rgb(30.368042%, 77.922058%, 86.436462%)" offset="0.167969"/><stop stop-opacity="1" stop-color="rgb(30.226135%, 77.693176%, 86.349487%)" offset="0.171875"/><stop stop-opacity="1" stop-color="rgb(30.082703%, 77.462769%, 86.260986%)" offset="0.175781"/><stop stop-opacity="1" stop-color="rgb(29.940796%, 77.233887%, 86.174011%)" offset="0.179687"/><stop stop-opacity="1" stop-color="rgb(29.797363%, 77.003479%, 86.08551%)" offset="0.183594"/><stop stop-opacity="1" stop-color="rgb(29.655457%, 76.774597%, 85.998535%)" offset="0.1875"/><stop stop-opacity="1" stop-color="rgb(29.512024%, 76.544189%, 85.91156%)" offset="0.191406"/><stop stop-opacity="1" stop-color="rgb(29.370117%, 76.315308%, 85.824585%)" offset="0.195312"/><stop stop-opacity="1" stop-color="rgb(29.226685%, 76.0849%, 85.736084%)" offset="0.199219"/><stop stop-opacity="1" stop-color="rgb(29.084778%, 75.856018%, 85.649109%)" offset="0.203125"/><stop stop-opacity="1" stop-color="rgb(28.941345%, 75.62561%, 85.560608%)" offset="0.207031"/><stop stop-opacity="1" stop-color="rgb(28.799438%, 75.396729%, 85.473633%)" offset="0.210938"/><stop stop-opacity="1" stop-color="rgb(28.657532%, 75.166321%, 85.386658%)" offset="0.214844"/><stop stop-opacity="1" stop-color="rgb(28.515625%, 74.937439%, 85.299683%)" offset="0.21875"/><stop stop-opacity="1" stop-color="rgb(28.372192%, 74.707031%, 85.211182%)" offset="0.222656"/><stop stop-opacity="1" stop-color="rgb(28.230286%, 74.476624%, 85.124207%)" offset="0.226562"/><stop stop-opacity="1" stop-color="rgb(28.086853%, 74.246216%, 85.035706%)" offset="0.230469"/><stop stop-opacity="1" stop-color="rgb(27.944946%, 74.017334%, 84.94873%)" offset="0.234375"/><stop stop-opacity="1" stop-color="rgb(27.801514%, 73.786926%, 84.861755%)" offset="0.238281"/><stop stop-opacity="1" stop-color="rgb(27.659607%, 73.558044%, 84.77478%)" offset="0.242188"/><stop stop-opacity="1" stop-color="rgb(27.516174%, 73.327637%, 84.686279%)" offset="0.246094"/><stop stop-opacity="1" stop-color="rgb(27.374268%, 73.098755%, 84.599304%)" offset="0.25"/><stop stop-opacity="1" stop-color="rgb(27.230835%, 72.868347%, 84.510803%)" offset="0.253906"/><stop stop-opacity="1" stop-color="rgb(27.088928%, 72.639465%, 84.423828%)" offset="0.257812"/><stop stop-opacity="1" stop-color="rgb(26.945496%, 72.409058%, 84.336853%)" offset="0.261719"/><stop stop-opacity="1" stop-color="rgb(26.803589%, 72.180176%, 84.249878%)" offset="0.265625"/><stop stop-opacity="1" stop-color="rgb(26.660156%, 71.949768%, 84.161377%)" offset="0.269531"/><stop stop-opacity="1" stop-color="rgb(26.51825%, 71.720886%, 84.074402%)" offset="0.273437"/><stop stop-opacity="1" stop-color="rgb(26.374817%, 71.490479%, 83.985901%)" offset="0.277344"/><stop stop-opacity="1" stop-color="rgb(26.23291%, 71.261597%, 83.898926%)" offset="0.28125"/><stop stop-opacity="1" stop-color="rgb(26.091003%, 71.031189%, 83.811951%)" offset="0.285156"/><stop stop-opacity="1" stop-color="rgb(25.949097%, 70.802307%, 83.724976%)" offset="0.289062"/><stop stop-opacity="1" stop-color="rgb(25.805664%, 70.571899%, 83.636475%)" offset="0.292969"/><stop stop-opacity="1" stop-color="rgb(25.663757%, 70.343018%, 83.5495%)" offset="0.296875"/><stop stop-opacity="1" stop-color="rgb(25.520325%, 70.11261%, 83.460999%)" offset="0.300781"/><stop stop-opacity="1" stop-color="rgb(25.378418%, 69.883728%, 83.374023%)" offset="0.304687"/><stop stop-opacity="1" stop-color="rgb(25.234985%, 69.65332%, 83.285522%)" offset="0.308594"/><stop stop-opacity="1" stop-color="rgb(25.093079%, 69.424438%, 83.198547%)" offset="0.3125"/><stop stop-opacity="1" stop-color="rgb(24.949646%, 69.194031%, 83.111572%)" offset="0.316406"/><stop stop-opacity="1" stop-color="rgb(24.807739%, 68.965149%, 83.024597%)" offset="0.320312"/><stop stop-opacity="1" stop-color="rgb(24.664307%, 68.734741%, 82.936096%)" offset="0.324219"/><stop stop-opacity="1" stop-color="rgb(24.5224%, 68.505859%, 82.849121%)" offset="0.328125"/><stop stop-opacity="1" stop-color="rgb(24.378967%, 68.275452%, 82.76062%)" offset="0.332031"/><stop stop-opacity="1" stop-color="rgb(24.237061%, 68.04657%, 82.673645%)" offset="0.335937"/><stop stop-opacity="1" stop-color="rgb(24.093628%, 67.816162%, 82.58667%)" offset="0.339844"/><stop stop-opacity="1" stop-color="rgb(23.951721%, 67.58728%, 82.499695%)" offset="0.34375"/><stop stop-opacity="1" stop-color="rgb(23.809814%, 67.356873%, 82.411194%)" offset="0.347656"/><stop stop-opacity="1" stop-color="rgb(23.667908%, 67.127991%, 82.324219%)" offset="0.351562"/><stop stop-opacity="1" stop-color="rgb(23.524475%, 66.897583%, 82.235718%)" offset="0.355469"/><stop stop-opacity="1" stop-color="rgb(23.382568%, 66.668701%, 82.148743%)" offset="0.359375"/><stop stop-opacity="1" stop-color="rgb(23.239136%, 66.438293%, 82.061768%)" offset="0.363281"/><stop stop-opacity="1" stop-color="rgb(23.097229%, 66.207886%, 81.974792%)" offset="0.367187"/><stop stop-opacity="1" stop-color="rgb(22.953796%, 65.977478%, 81.886292%)" offset="0.371094"/><stop stop-opacity="1" stop-color="rgb(22.81189%, 65.748596%, 81.799316%)" offset="0.375"/><stop stop-opacity="1" stop-color="rgb(22.668457%, 65.518188%, 81.710815%)" offset="0.378906"/><stop stop-opacity="1" stop-color="rgb(22.52655%, 65.289307%, 81.62384%)" offset="0.382812"/><stop stop-opacity="1" stop-color="rgb(22.383118%, 65.058899%, 81.536865%)" offset="0.386719"/><stop stop-opacity="1" stop-color="rgb(22.241211%, 64.830017%, 81.44989%)" offset="0.390625"/><stop stop-opacity="1" stop-color="rgb(22.097778%, 64.599609%, 81.361389%)" offset="0.394531"/><stop stop-opacity="1" stop-color="rgb(21.955872%, 64.370728%, 81.274414%)" offset="0.398438"/><stop stop-opacity="1" stop-color="rgb(21.812439%, 64.14032%, 81.185913%)" offset="0.402344"/><stop stop-opacity="1" stop-color="rgb(21.670532%, 63.911438%, 81.098938%)" offset="0.40625"/><stop stop-opacity="1" stop-color="rgb(21.528625%, 63.68103%, 81.011963%)" offset="0.410156"/><stop stop-opacity="1" stop-color="rgb(21.386719%, 63.452148%, 80.924988%)" offset="0.414062"/><stop stop-opacity="1" stop-color="rgb(21.243286%, 63.221741%, 80.836487%)" offset="0.417969"/><stop stop-opacity="1" stop-color="rgb(21.101379%, 62.992859%, 80.749512%)" offset="0.421875"/><stop stop-opacity="1" stop-color="rgb(20.957947%, 62.762451%, 80.661011%)" offset="0.425781"/><stop stop-opacity="1" stop-color="rgb(20.81604%, 62.533569%, 80.574036%)" offset="0.429688"/><stop stop-opacity="1" stop-color="rgb(20.672607%, 62.303162%, 80.485535%)" offset="0.433594"/><stop stop-opacity="1" stop-color="rgb(20.530701%, 62.07428%, 80.39856%)" offset="0.4375"/><stop stop-opacity="1" stop-color="rgb(20.387268%, 61.843872%, 80.311584%)" offset="0.441406"/><stop stop-opacity="1" stop-color="rgb(20.245361%, 61.61499%, 80.224609%)" offset="0.445312"/><stop stop-opacity="1" stop-color="rgb(20.101929%, 61.384583%, 80.136108%)" offset="0.449219"/><stop stop-opacity="1" stop-color="rgb(19.960022%, 61.155701%, 80.049133%)" offset="0.453125"/><stop stop-opacity="1" stop-color="rgb(19.816589%, 60.925293%, 79.960632%)" offset="0.457031"/><stop stop-opacity="1" stop-color="rgb(19.674683%, 60.696411%, 79.873657%)" offset="0.460938"/><stop stop-opacity="1" stop-color="rgb(19.53125%, 60.466003%, 79.786682%)" offset="0.464844"/><stop stop-opacity="1" stop-color="rgb(19.389343%, 60.237122%, 79.699707%)" offset="0.46875"/><stop stop-opacity="1" stop-color="rgb(19.245911%, 60.006714%, 79.611206%)" offset="0.472656"/><stop stop-opacity="1" stop-color="rgb(19.104004%, 59.777832%, 79.524231%)" offset="0.476562"/><stop stop-opacity="1" stop-color="rgb(18.962097%, 59.547424%, 79.43573%)" offset="0.480469"/><stop stop-opacity="1" stop-color="rgb(18.82019%, 59.318542%, 79.348755%)" offset="0.484375"/><stop stop-opacity="1" stop-color="rgb(18.676758%, 59.088135%, 79.26178%)" offset="0.488281"/><stop stop-opacity="1" stop-color="rgb(18.534851%, 58.859253%, 79.174805%)" offset="0.492188"/><stop stop-opacity="1" stop-color="rgb(18.391418%, 58.628845%, 79.086304%)" offset="0.496094"/><stop stop-opacity="1" stop-color="rgb(18.249512%, 58.399963%, 78.999329%)" offset="0.5"/><stop stop-opacity="1" stop-color="rgb(18.106079%, 58.169556%, 78.910828%)" offset="0.503906"/><stop stop-opacity="1" stop-color="rgb(17.964172%, 57.939148%, 78.823853%)" offset="0.507812"/><stop stop-opacity="1" stop-color="rgb(17.82074%, 57.70874%, 78.736877%)" offset="0.511719"/><stop stop-opacity="1" stop-color="rgb(17.678833%, 57.479858%, 78.649902%)" offset="0.515625"/><stop stop-opacity="1" stop-color="rgb(17.5354%, 57.249451%, 78.561401%)" offset="0.519531"/><stop stop-opacity="1" stop-color="rgb(17.393494%, 57.020569%, 78.474426%)" offset="0.523437"/><stop stop-opacity="1" stop-color="rgb(17.250061%, 56.790161%, 78.385925%)" offset="0.527344"/><stop stop-opacity="1" stop-color="rgb(17.108154%, 56.561279%, 78.29895%)" offset="0.53125"/><stop stop-opacity="1" stop-color="rgb(16.964722%, 56.330872%, 78.211975%)" offset="0.535156"/><stop stop-opacity="1" stop-color="rgb(16.822815%, 56.10199%, 78.125%)" offset="0.539062"/><stop stop-opacity="1" stop-color="rgb(16.680908%, 55.871582%, 78.036499%)" offset="0.542969"/><stop stop-opacity="1" stop-color="rgb(16.539001%, 55.6427%, 77.949524%)" offset="0.546875"/><stop stop-opacity="1" stop-color="rgb(16.395569%, 55.412292%, 77.861023%)" offset="0.550781"/><stop stop-opacity="1" stop-color="rgb(16.253662%, 55.183411%, 77.774048%)" offset="0.554687"/><stop stop-opacity="1" stop-color="rgb(16.110229%, 54.953003%, 77.685547%)" offset="0.558594"/><stop stop-opacity="1" stop-color="rgb(15.968323%, 54.724121%, 77.598572%)" offset="0.5625"/><stop stop-opacity="1" stop-color="rgb(15.82489%, 54.493713%, 77.511597%)" offset="0.566406"/><stop stop-opacity="1" stop-color="rgb(15.682983%, 54.264832%, 77.424622%)" offset="0.570312"/><stop stop-opacity="1" stop-color="rgb(15.539551%, 54.034424%, 77.336121%)" offset="0.574219"/><stop stop-opacity="1" stop-color="rgb(15.397644%, 53.805542%, 77.249146%)" offset="0.578125"/><stop stop-opacity="1" stop-color="rgb(15.254211%, 53.575134%, 77.160645%)" offset="0.582031"/><stop stop-opacity="1" stop-color="rgb(15.112305%, 53.346252%, 77.073669%)" offset="0.585937"/><stop stop-opacity="1" stop-color="rgb(14.968872%, 53.115845%, 76.986694%)" offset="0.589844"/><stop stop-opacity="1" stop-color="rgb(14.826965%, 52.886963%, 76.899719%)" offset="0.59375"/><stop stop-opacity="1" stop-color="rgb(14.683533%, 52.656555%, 76.811218%)" offset="0.597656"/><stop stop-opacity="1" stop-color="rgb(14.541626%, 52.427673%, 76.724243%)" offset="0.601562"/><stop stop-opacity="1" stop-color="rgb(14.399719%, 52.197266%, 76.635742%)" offset="0.605469"/><stop stop-opacity="1" stop-color="rgb(14.257812%, 51.968384%, 76.548767%)" offset="0.609375"/><stop stop-opacity="1" stop-color="rgb(14.11438%, 51.737976%, 76.461792%)" offset="0.613281"/><stop stop-opacity="1" stop-color="rgb(13.972473%, 51.509094%, 76.374817%)" offset="0.617187"/><stop stop-opacity="1" stop-color="rgb(13.829041%, 51.278687%, 76.286316%)" offset="0.621094"/><stop stop-opacity="1" stop-color="rgb(13.687134%, 51.049805%, 76.199341%)" offset="0.625"/><stop stop-opacity="1" stop-color="rgb(13.543701%, 50.819397%, 76.11084%)" offset="0.628906"/><stop stop-opacity="1" stop-color="rgb(13.401794%, 50.590515%, 76.023865%)" offset="0.632812"/><stop stop-opacity="1" stop-color="rgb(13.258362%, 50.360107%, 75.93689%)" offset="0.636719"/><stop stop-opacity="1" stop-color="rgb(13.116455%, 50.131226%, 75.849915%)" offset="0.640625"/><stop stop-opacity="1" stop-color="rgb(12.973022%, 49.900818%, 75.761414%)" offset="0.644531"/><stop stop-opacity="1" stop-color="rgb(12.831116%, 49.67041%, 75.674438%)" offset="0.648437"/><stop stop-opacity="1" stop-color="rgb(12.687683%, 49.440002%, 75.585938%)" offset="0.652344"/><stop stop-opacity="1" stop-color="rgb(12.545776%, 49.211121%, 75.498962%)" offset="0.65625"/><stop stop-opacity="1" stop-color="rgb(12.402344%, 48.980713%, 75.410461%)" offset="0.660156"/><stop stop-opacity="1" stop-color="rgb(12.260437%, 48.751831%, 75.323486%)" offset="0.664062"/><stop stop-opacity="1" stop-color="rgb(12.117004%, 48.521423%, 75.236511%)" offset="0.667969"/><stop stop-opacity="1" stop-color="rgb(11.975098%, 48.292542%, 75.149536%)" offset="0.671875"/><stop stop-opacity="1" stop-color="rgb(11.833191%, 48.062134%, 75.061035%)" offset="0.675781"/><stop stop-opacity="1" stop-color="rgb(11.691284%, 47.833252%, 74.97406%)" offset="0.679687"/><stop stop-opacity="1" stop-color="rgb(11.547852%, 47.602844%, 74.885559%)" offset="0.683594"/><stop stop-opacity="1" stop-color="rgb(11.405945%, 47.373962%, 74.798584%)" offset="0.6875"/><stop stop-opacity="1" stop-color="rgb(11.262512%, 47.143555%, 74.711609%)" offset="0.691406"/><stop stop-opacity="1" stop-color="rgb(11.120605%, 46.914673%, 74.624634%)" offset="0.695312"/><stop stop-opacity="1" stop-color="rgb(10.977173%, 46.684265%, 74.536133%)" offset="0.699219"/><stop stop-opacity="1" stop-color="rgb(10.835266%, 46.455383%, 74.449158%)" offset="0.703125"/><stop stop-opacity="1" stop-color="rgb(10.691833%, 46.224976%, 74.360657%)" offset="0.707031"/><stop stop-opacity="1" stop-color="rgb(10.549927%, 45.996094%, 74.273682%)" offset="0.710937"/><stop stop-opacity="1" stop-color="rgb(10.406494%, 45.765686%, 74.186707%)" offset="0.714844"/><stop stop-opacity="1" stop-color="rgb(10.264587%, 45.536804%, 74.099731%)" offset="0.71875"/><stop stop-opacity="1" stop-color="rgb(10.121155%, 45.306396%, 74.01123%)" offset="0.722656"/><stop stop-opacity="1" stop-color="rgb(9.979248%, 45.077515%, 73.924255%)" offset="0.726562"/><stop stop-opacity="1" stop-color="rgb(9.835815%, 44.847107%, 73.835754%)" offset="0.730469"/><stop stop-opacity="1" stop-color="rgb(9.693909%, 44.618225%, 73.748779%)" offset="0.734375"/><stop stop-opacity="1" stop-color="rgb(9.552002%, 44.387817%, 73.661804%)" offset="0.738281"/><stop stop-opacity="1" stop-color="rgb(9.410095%, 44.158936%, 73.574829%)" offset="0.742187"/><stop stop-opacity="1" stop-color="rgb(9.266663%, 43.928528%, 73.486328%)" offset="0.746094"/><stop stop-opacity="1" stop-color="rgb(9.124756%, 43.699646%, 73.399353%)" offset="0.75"/><stop stop-opacity="1" stop-color="rgb(8.981323%, 43.469238%, 73.310852%)" offset="0.753906"/><stop stop-opacity="1" stop-color="rgb(8.839417%, 43.240356%, 73.223877%)" offset="0.757812"/><stop stop-opacity="1" stop-color="rgb(8.695984%, 43.009949%, 73.136902%)" offset="0.761719"/><stop stop-opacity="1" stop-color="rgb(8.554077%, 42.781067%, 73.049927%)" offset="0.765625"/><stop stop-opacity="1" stop-color="rgb(8.410645%, 42.550659%, 72.961426%)" offset="0.769531"/><stop stop-opacity="1" stop-color="rgb(8.268738%, 42.321777%, 72.874451%)" offset="0.773438"/><stop stop-opacity="1" stop-color="rgb(8.125305%, 42.09137%, 72.78595%)" offset="0.777344"/><stop stop-opacity="1" stop-color="rgb(7.983398%, 41.862488%, 72.698975%)" offset="0.78125"/><stop stop-opacity="1" stop-color="rgb(7.839966%, 41.63208%, 72.610474%)" offset="0.785156"/><stop stop-opacity="1" stop-color="rgb(7.698059%, 41.401672%, 72.523499%)" offset="0.789062"/><stop stop-opacity="1" stop-color="rgb(7.554626%, 41.171265%, 72.436523%)" offset="0.792969"/><stop stop-opacity="1" stop-color="rgb(7.41272%, 40.942383%, 72.349548%)" offset="0.796875"/><stop stop-opacity="1" stop-color="rgb(7.270813%, 40.711975%, 72.261047%)" offset="0.800781"/><stop stop-opacity="1" stop-color="rgb(7.128906%, 40.483093%, 72.174072%)" offset="0.804688"/><stop stop-opacity="1" stop-color="rgb(6.985474%, 40.252686%, 72.085571%)" offset="0.808594"/><stop stop-opacity="1" stop-color="rgb(6.843567%, 40.023804%, 71.998596%)" offset="0.8125"/><stop stop-opacity="1" stop-color="rgb(6.700134%, 39.793396%, 71.911621%)" offset="0.816406"/><stop stop-opacity="1" stop-color="rgb(6.558228%, 39.564514%, 71.824646%)" offset="0.820312"/><stop stop-opacity="1" stop-color="rgb(6.414795%, 39.334106%, 71.736145%)" offset="0.824219"/><stop stop-opacity="1" stop-color="rgb(6.272888%, 39.105225%, 71.64917%)" offset="0.828125"/><stop stop-opacity="1" stop-color="rgb(6.129456%, 38.874817%, 71.560669%)" offset="0.832031"/><stop stop-opacity="1" stop-color="rgb(5.987549%, 38.645935%, 71.473694%)" offset="0.835938"/><stop stop-opacity="1" stop-color="rgb(5.844116%, 38.415527%, 71.386719%)" offset="0.839844"/><stop stop-opacity="1" stop-color="rgb(5.702209%, 38.186646%, 71.299744%)" offset="0.84375"/><stop stop-opacity="1" stop-color="rgb(5.558777%, 37.956238%, 71.211243%)" offset="0.847656"/><stop stop-opacity="1" stop-color="rgb(5.41687%, 37.727356%, 71.124268%)" offset="0.851562"/><stop stop-opacity="1" stop-color="rgb(5.273438%, 37.496948%, 71.035767%)" offset="0.855469"/><stop stop-opacity="1" stop-color="rgb(5.131531%, 37.268066%, 70.948792%)" offset="0.859375"/><stop stop-opacity="1" stop-color="rgb(4.988098%, 37.037659%, 70.861816%)" offset="0.863281"/><stop stop-opacity="1" stop-color="rgb(4.846191%, 36.808777%, 70.774841%)" offset="0.867188"/><stop stop-opacity="1" stop-color="rgb(4.704285%, 36.578369%, 70.68634%)" offset="0.871094"/><stop stop-opacity="1" stop-color="rgb(4.562378%, 36.349487%, 70.599365%)" offset="0.875"/><stop stop-opacity="1" stop-color="rgb(4.418945%, 36.11908%, 70.510864%)" offset="0.878906"/><stop stop-opacity="1" stop-color="rgb(4.277039%, 35.890198%, 70.423889%)" offset="0.882812"/><stop stop-opacity="1" stop-color="rgb(4.133606%, 35.65979%, 70.336914%)" offset="0.886719"/><stop stop-opacity="1" stop-color="rgb(3.991699%, 35.430908%, 70.249939%)" offset="0.890625"/><stop stop-opacity="1" stop-color="rgb(3.848267%, 35.2005%, 70.161438%)" offset="0.894531"/><stop stop-opacity="1" stop-color="rgb(3.70636%, 34.971619%, 70.074463%)" offset="0.898438"/><stop stop-opacity="1" stop-color="rgb(3.562927%, 34.741211%, 69.985962%)" offset="0.902344"/><stop stop-opacity="1" stop-color="rgb(3.421021%, 34.512329%, 69.898987%)" offset="0.90625"/><stop stop-opacity="1" stop-color="rgb(3.277588%, 34.281921%, 69.810486%)" offset="0.910156"/><stop stop-opacity="1" stop-color="rgb(3.135681%, 34.05304%, 69.723511%)" offset="0.914062"/><stop stop-opacity="1" stop-color="rgb(2.992249%, 33.822632%, 69.636536%)" offset="0.917969"/><stop stop-opacity="1" stop-color="rgb(2.850342%, 33.59375%, 69.549561%)" offset="0.921875"/><stop stop-opacity="1" stop-color="rgb(2.706909%, 33.363342%, 69.46106%)" offset="0.925781"/><stop stop-opacity="1" stop-color="rgb(2.565002%, 33.132935%, 69.374084%)" offset="0.929688"/><stop stop-opacity="1" stop-color="rgb(2.423096%, 32.902527%, 69.285583%)" offset="0.933594"/><stop stop-opacity="1" stop-color="rgb(2.281189%, 32.673645%, 69.198608%)" offset="0.9375"/><stop stop-opacity="1" stop-color="rgb(2.137756%, 32.443237%, 69.111633%)" offset="0.941406"/><stop stop-opacity="1" stop-color="rgb(1.99585%, 32.214355%, 69.024658%)" offset="0.945312"/><stop stop-opacity="1" stop-color="rgb(1.852417%, 31.983948%, 68.936157%)" offset="0.949219"/><stop stop-opacity="1" stop-color="rgb(1.71051%, 31.755066%, 68.849182%)" offset="0.953125"/><stop stop-opacity="1" stop-color="rgb(1.567078%, 31.524658%, 68.760681%)" offset="0.957031"/><stop stop-opacity="1" stop-color="rgb(1.425171%, 31.295776%, 68.673706%)" offset="0.960938"/><stop stop-opacity="1" stop-color="rgb(1.281738%, 31.065369%, 68.586731%)" offset="0.964844"/><stop stop-opacity="1" stop-color="rgb(1.139832%, 30.836487%, 68.499756%)" offset="0.96875"/><stop stop-opacity="1" stop-color="rgb(0.996399%, 30.606079%, 68.411255%)" offset="0.972656"/><stop stop-opacity="1" stop-color="rgb(0.854492%, 30.377197%, 68.32428%)" offset="0.976562"/><stop stop-opacity="1" stop-color="rgb(0.71106%, 30.14679%, 68.235779%)" offset="0.980469"/><stop stop-opacity="1" stop-color="rgb(0.569153%, 29.917908%, 68.148804%)" offset="0.984375"/><stop stop-opacity="1" stop-color="rgb(0.42572%, 29.6875%, 68.061829%)" offset="0.988281"/><stop stop-opacity="1" stop-color="rgb(0.283813%, 29.458618%, 67.974854%)" offset="0.992188"/><stop stop-opacity="1" stop-color="rgb(0.141907%, 29.22821%, 67.886353%)" offset="0.996094"/><stop stop-opacity="1" stop-color="rgb(0%, 28.999329%, 67.799377%)" offset="1"/></linearGradient><clipPath id="a774190998"><path d="M 66.5 143.074219 L 115 143.074219 L 115 174.574219 L 66.5 174.574219 Z M 66.5 143.074219 " clip-rule="nonzero"/></clipPath></defs><rect x="-37.5" width="450" fill="#ffffff" y="-37.499999" height="449.999989" fill-opacity="1"/><rect x="-37.5" fill="url(#3daadd27fa)" width="450" y="-37.499999" height="449.999989"/><g fill="#5ce1e6" fill-opacity="1"><g transform="translate(171.382289, 205.57111)"><g><path d="M 0 -29.4375 C 0.84375 -29.4375 1.78125 -29.726562 2.8125 -30.3125 C 3.851562 -30.90625 4.90625 -31.644531 5.96875 -32.53125 C 7.039062 -33.414062 8.050781 -34.289062 9 -35.15625 C 9.957031 -36.03125 10.800781 -36.757812 11.53125 -37.34375 C 12.257812 -37.9375 12.789062 -38.234375 13.125 -38.234375 C 13.65625 -38.234375 13.921875 -37.894531 13.921875 -37.21875 L 13.921875 -29.4375 L 17.546875 -29.4375 L 17.546875 -27.34375 L 13.921875 -27.34375 L 13.921875 -10.34375 C 13.921875 -9.25 13.929688 -8.15625 13.953125 -7.0625 C 13.984375 -5.96875 14.140625 -4.984375 14.421875 -4.109375 C 14.703125 -3.242188 15.207031 -2.578125 15.9375 -2.109375 C 16.101562 -1.992188 16.273438 -1.9375 16.453125 -1.9375 C 16.640625 -1.9375 16.832031 -1.90625 17.03125 -1.84375 C 16.976562 -1.34375 16.707031 -0.898438 16.21875 -0.515625 C 15.726562 -0.140625 15.144531 0.140625 14.46875 0.328125 C 13.789062 0.523438 13.117188 0.625 12.453125 0.625 C 10.429688 0.625 8.8125 0.289062 7.59375 -0.375 C 6.375 -1.050781 5.445312 -1.957031 4.8125 -3.09375 C 4.1875 -4.226562 3.765625 -5.492188 3.546875 -6.890625 C 3.335938 -8.296875 3.234375 -9.710938 3.234375 -11.140625 L 3.234375 -24.65625 C 3.234375 -25.070312 3.210938 -25.488281 3.171875 -25.90625 C 3.128906 -26.332031 2.972656 -26.675781 2.703125 -26.9375 C 2.441406 -27.207031 1.972656 -27.34375 1.296875 -27.34375 L 0 -27.34375 Z M 0 -29.4375 "/></g></g></g><g fill="#5ce1e6" fill-opacity="1"><g transform="translate(187.700564, 205.57111)"><g><path d="M 0 -24.9375 C 0 -25.164062 0.0664062 -25.304688 0.203125 -25.359375 C 0.347656 -25.421875 0.4375 -25.460938 0.46875 -25.484375 C 0.800781 -25.660156 1.320312 -25.921875 2.03125 -26.265625 C 2.75 -26.617188 3.5625 -27.007812 4.46875 -27.4375 C 5.382812 -27.875 6.316406 -28.289062 7.265625 -28.6875 C 8.222656 -29.082031 9.109375 -29.410156 9.921875 -29.671875 C 10.734375 -29.941406 11.394531 -30.078125 11.90625 -30.078125 C 12.519531 -30.078125 12.882812 -29.90625 13 -29.5625 C 13.113281 -29.226562 13.171875 -28.851562 13.171875 -28.4375 L 13.171875 -4.96875 C 13.171875 -3.757812 13.273438 -2.769531 13.484375 -2 C 13.691406 -1.226562 14.078125 -0.5625 14.640625 0 L 0.546875 0 C 1.109375 -0.5625 1.492188 -1.226562 1.703125 -2 C 1.910156 -2.769531 2.015625 -3.757812 2.015625 -4.96875 L 2.015625 -21.109375 C 2.015625 -21.285156 2.007812 -21.597656 2 -22.046875 C 1.988281 -22.492188 1.890625 -22.945312 1.703125 -23.40625 C 1.523438 -23.875 1.164062 -24.191406 0.625 -24.359375 C 0.570312 -24.378906 0.453125 -24.414062 0.265625 -24.46875 C 0.0859375 -24.53125 0 -24.6875 0 -24.9375 Z M 7.484375 -44.546875 C 9.335938 -44.546875 10.820312 -43.984375 11.9375 -42.859375 C 13.0625 -41.734375 13.625 -40.25 13.625 -38.40625 C 13.625 -36.550781 13.0625 -35.0625 11.9375 -33.9375 C 10.820312 -32.820312 9.335938 -32.265625 7.484375 -32.265625 C 5.640625 -32.265625 4.15625 -32.820312 3.03125 -33.9375 C 1.90625 -35.0625 1.34375 -36.550781 1.34375 -38.40625 C 1.34375 -40.25 1.90625 -41.734375 3.03125 -42.859375 C 4.15625 -43.984375 5.640625 -44.546875 7.484375 -44.546875 Z M 7.484375 -44.546875 "/></g></g></g><g fill="#5ce1e6" fill-opacity="1"><g transform="translate(200.906516, 205.57111)"><g><path d="M 3.578125 -21.03125 C 3.066406 -22.738281 2.566406 -24.367188 2.078125 -25.921875 C 1.585938 -27.484375 0.894531 -28.65625 0 -29.4375 L 14.71875 -29.4375 C 14.21875 -28.257812 14.09375 -26.960938 14.34375 -25.546875 C 14.59375 -24.128906 14.929688 -22.625 15.359375 -21.03125 C 15.742188 -19.570312 16.144531 -18.015625 16.5625 -16.359375 C 16.988281 -14.703125 17.425781 -13.070312 17.875 -11.46875 C 18.320312 -9.875 18.773438 -8.414062 19.234375 -7.09375 C 19.703125 -5.78125 20.148438 -4.734375 20.578125 -3.953125 C 21.015625 -3.171875 21.445312 -2.78125 21.875 -2.78125 C 22.375 -2.78125 22.851562 -3.25 23.3125 -4.1875 C 23.78125 -5.125 24.160156 -6.328125 24.453125 -7.796875 C 24.753906 -9.273438 24.90625 -10.796875 24.90625 -12.359375 C 24.90625 -14.523438 24.644531 -16.257812 24.125 -17.5625 C 23.601562 -18.863281 22.960938 -19.878906 22.203125 -20.609375 C 21.453125 -21.335938 20.703125 -21.894531 19.953125 -22.28125 C 19.210938 -22.675781 18.582031 -23.015625 18.0625 -23.296875 C 17.539062 -23.578125 17.28125 -23.929688 17.28125 -24.359375 C 17.28125 -25.023438 17.570312 -25.691406 18.15625 -26.359375 C 18.75 -27.035156 19.535156 -27.65625 20.515625 -28.21875 C 21.503906 -28.78125 22.566406 -29.226562 23.703125 -29.5625 C 24.835938 -29.90625 25.953125 -30.078125 27.046875 -30.078125 C 28.171875 -30.078125 29.0625 -29.816406 29.71875 -29.296875 C 30.375 -28.773438 30.851562 -28.109375 31.15625 -27.296875 C 31.46875 -26.484375 31.625 -25.613281 31.625 -24.6875 C 31.625 -23.675781 31.421875 -22.363281 31.015625 -20.75 C 30.609375 -19.144531 30.082031 -17.34375 29.4375 -15.34375 C 28.789062 -13.351562 28.078125 -11.265625 27.296875 -9.078125 C 26.515625 -6.890625 25.742188 -4.707031 24.984375 -2.53125 C 24.703125 -1.65625 24.378906 -1.046875 24.015625 -0.703125 C 23.648438 -0.367188 23.269531 -0.164062 22.875 -0.09375 C 22.488281 -0.03125 22.097656 0 21.703125 0 L 12.5 0 C 11.625 0 10.882812 -0.3125 10.28125 -0.9375 C 9.675781 -1.570312 9.15625 -2.394531 8.71875 -3.40625 C 8.289062 -4.414062 7.921875 -5.5 7.609375 -6.65625 C 7.304688 -7.820312 7.015625 -8.941406 6.734375 -10.015625 C 6.390625 -11.328125 6.070312 -12.515625 5.78125 -13.578125 C 5.488281 -14.648438 5.164062 -15.757812 4.8125 -16.90625 C 4.46875 -18.0625 4.054688 -19.4375 3.578125 -21.03125 Z M 3.578125 -21.03125 "/></g></g></g><g fill="#5ce1e6" fill-opacity="1"><g transform="translate(231.945259, 205.57111)"><g><path d="M 1.046875 -13.921875 C 1.046875 -17.003906 1.617188 -19.757812 2.765625 -22.1875 C 3.921875 -24.613281 5.617188 -26.535156 7.859375 -27.953125 C 10.109375 -29.367188 12.875 -30.078125 16.15625 -30.078125 C 18.644531 -30.078125 20.765625 -29.539062 22.515625 -28.46875 C 24.273438 -27.40625 25.609375 -26.019531 26.515625 -24.3125 C 27.429688 -22.601562 27.890625 -20.78125 27.890625 -18.84375 C 27.890625 -17.4375 27.554688 -16.347656 26.890625 -15.578125 C 26.234375 -14.804688 25.335938 -14.257812 24.203125 -13.9375 C 23.066406 -13.613281 21.785156 -13.425781 20.359375 -13.375 C 18.929688 -13.320312 17.4375 -13.328125 15.875 -13.390625 C 14.320312 -13.460938 12.800781 -13.5 11.3125 -13.5 C 11.113281 -13.5 10.898438 -13.476562 10.671875 -13.4375 C 10.453125 -13.394531 10.34375 -13.191406 10.34375 -12.828125 C 10.34375 -12.460938 10.710938 -11.957031 11.453125 -11.3125 C 12.203125 -10.664062 13.164062 -10.003906 14.34375 -9.328125 C 15.519531 -8.660156 16.78125 -8.101562 18.125 -7.65625 C 19.46875 -7.207031 20.742188 -6.984375 21.953125 -6.984375 C 22.960938 -6.984375 23.773438 -7.09375 24.390625 -7.3125 C 25.015625 -7.539062 25.507812 -7.796875 25.875 -8.078125 C 26.238281 -8.359375 26.535156 -8.609375 26.765625 -8.828125 C 27.003906 -9.054688 27.222656 -9.171875 27.421875 -9.171875 C 27.566406 -9.171875 27.710938 -9.113281 27.859375 -9 C 28.015625 -8.882812 28.09375 -8.644531 28.09375 -8.28125 C 28.09375 -7.5 27.859375 -6.59375 27.390625 -5.5625 C 26.929688 -4.539062 26.234375 -3.5625 25.296875 -2.625 C 24.359375 -1.6875 23.148438 -0.910156 21.671875 -0.296875 C 20.203125 0.316406 18.460938 0.625 16.453125 0.625 C 14.429688 0.625 12.492188 0.257812 10.640625 -0.46875 C 8.785156 -1.195312 7.144531 -2.21875 5.71875 -3.53125 C 4.289062 -4.851562 3.15625 -6.394531 2.3125 -8.15625 C 1.46875 -9.925781 1.046875 -11.847656 1.046875 -13.921875 Z M 5.765625 -21.625 C 5.765625 -20.632812 5.925781 -19.671875 6.25 -18.734375 C 6.570312 -17.796875 7.085938 -17.023438 7.796875 -16.421875 C 8.515625 -15.816406 9.4375 -15.515625 10.5625 -15.515625 C 11.539062 -15.515625 12.535156 -15.550781 13.546875 -15.625 C 14.554688 -15.695312 15.488281 -15.835938 16.34375 -16.046875 C 17.195312 -16.253906 17.882812 -16.566406 18.40625 -16.984375 C 18.925781 -17.410156 19.1875 -17.972656 19.1875 -18.671875 C 19.1875 -19.765625 18.910156 -20.734375 18.359375 -21.578125 C 17.816406 -22.421875 17.101562 -23.132812 16.21875 -23.71875 C 15.332031 -24.3125 14.398438 -24.753906 13.421875 -25.046875 C 12.441406 -25.335938 11.5 -25.484375 10.59375 -25.484375 C 9.8125 -25.484375 9.046875 -25.328125 8.296875 -25.015625 C 7.554688 -24.710938 6.945312 -24.273438 6.46875 -23.703125 C 6 -23.128906 5.765625 -22.4375 5.765625 -21.625 Z M 5.765625 -21.625 "/></g></g></g><g clip-path="url(#a774190998)"><path fill="#5ce1e6" d="M 69.226562 156.808594 C 69.226562 156.863281 69.226562 156.90625 69.226562 156.957031 C 69.226562 156.980469 69.226562 157.011719 69.226562 157.035156 C 69.226562 157.054688 69.226562 157.074219 69.226562 157.109375 C 69.226562 157.152344 69.234375 157.191406 69.226562 157.234375 C 69.226562 157.277344 69.226562 157.308594 69.214844 157.351562 C 69.160156 157.140625 69.160156 156.96875 69.226562 156.808594 Z M 69.226562 156.808594 Z M 101.265625 154.484375 C 101.265625 154.472656 101.257812 154.472656 101.257812 154.464844 C 101.257812 154.472656 101.265625 154.484375 101.265625 154.484375 Z M 86.722656 143.289062 C 85.65625 143.363281 84.613281 143.503906 83.746094 143.660156 C 83.535156 143.703125 83.320312 143.738281 83.128906 143.78125 C 82.9375 143.820312 82.757812 143.855469 82.597656 143.886719 C 82.265625 143.960938 82 144.015625 81.808594 144.054688 C 81.613281 144.132812 81.402344 144.207031 81.179688 144.269531 C 81.070312 144.300781 80.953125 144.34375 80.847656 144.375 C 80.792969 144.398438 80.742188 144.410156 80.675781 144.429688 L 80.507812 144.484375 C 80.058594 144.621094 79.609375 144.761719 79.238281 144.929688 L 79.3125 144.878906 C 79.207031 144.921875 79.046875 144.972656 78.832031 145.058594 C 78.726562 145.101562 78.609375 145.144531 78.492188 145.1875 C 78.363281 145.230469 78.234375 145.28125 78.085938 145.335938 C 77.519531 145.558594 76.839844 145.835938 76.15625 146.15625 C 75.484375 146.476562 74.8125 146.816406 74.269531 147.136719 C 74.203125 147.179688 74.128906 147.210938 74.066406 147.253906 C 74 147.296875 73.9375 147.332031 73.875 147.371094 C 73.757812 147.449219 73.640625 147.511719 73.542969 147.574219 C 73.449219 147.640625 73.351562 147.703125 73.277344 147.746094 C 73.203125 147.800781 73.128906 147.84375 73.074219 147.882812 L 73.203125 147.820312 C 72.839844 148.097656 72.679688 148.195312 72.519531 148.269531 C 72.445312 148.3125 72.371094 148.34375 72.273438 148.386719 C 72.230469 148.40625 72.179688 148.4375 72.113281 148.472656 C 72.082031 148.492188 72.050781 148.503906 72.019531 148.523438 C 71.988281 148.546875 71.953125 148.566406 71.910156 148.589844 C 71.988281 148.609375 71.871094 148.75 71.71875 148.898438 C 71.644531 148.972656 71.550781 149.058594 71.476562 149.144531 C 71.433594 149.183594 71.390625 149.21875 71.359375 149.25 C 71.324219 149.28125 71.28125 149.3125 71.261719 149.335938 L 71.25 149.3125 C 71.164062 149.386719 71.058594 149.484375 70.941406 149.601562 C 70.878906 149.664062 70.8125 149.730469 70.75 149.792969 C 70.71875 149.824219 70.6875 149.855469 70.644531 149.890625 C 70.609375 149.921875 70.578125 149.964844 70.535156 149.996094 C 70.460938 150.070312 70.398438 150.144531 70.324219 150.210938 C 70.25 150.285156 70.183594 150.359375 70.109375 150.433594 C 69.972656 150.582031 69.832031 150.730469 69.703125 150.859375 L 69.683594 150.796875 C 69.660156 150.828125 69.628906 150.859375 69.609375 150.890625 C 69.578125 150.921875 69.554688 150.957031 69.523438 150.988281 C 69.460938 151.050781 69.394531 151.125 69.332031 151.199219 C 69.300781 151.234375 69.265625 151.273438 69.226562 151.316406 C 69.191406 151.359375 69.148438 151.394531 69.117188 151.433594 C 69.042969 151.519531 68.96875 151.59375 68.90625 151.679688 C 68.617188 152.011719 68.359375 152.332031 68.222656 152.523438 C 68.0625 152.734375 67.882812 152.980469 67.699219 153.257812 C 67.519531 153.535156 67.335938 153.84375 67.167969 154.1875 C 67.007812 154.527344 66.859375 154.902344 66.761719 155.304688 C 66.664062 155.699219 66.613281 156.125 66.613281 156.53125 C 66.546875 156.882812 66.515625 157.257812 66.527344 157.640625 L 66.582031 157.800781 C 66.582031 157.800781 66.589844 157.800781 66.613281 157.8125 C 66.632812 157.824219 66.65625 157.832031 66.6875 157.84375 C 66.75 157.875 66.859375 157.90625 66.976562 157.941406 C 67.027344 157.949219 67.09375 157.972656 67.167969 157.980469 C 67.230469 157.992188 67.304688 158.003906 67.378906 158.015625 C 67.53125 158.023438 67.679688 158.023438 67.828125 158.003906 C 67.976562 157.980469 68.125 157.941406 68.265625 157.886719 C 68.328125 157.855469 68.402344 157.824219 68.457031 157.789062 C 68.488281 157.769531 68.519531 157.746094 68.542969 157.726562 C 68.574219 157.703125 68.597656 157.683594 68.628906 157.664062 C 68.734375 157.578125 68.832031 157.46875 68.90625 157.363281 C 68.925781 157.332031 68.9375 157.308594 68.957031 157.277344 C 68.980469 157.246094 68.992188 157.214844 69 157.183594 C 69.023438 157.117188 69.054688 157.054688 69.074219 156.980469 L 69.140625 156.992188 C 69.128906 156.957031 69.128906 156.914062 69.128906 156.882812 C 69.117188 156.851562 69.117188 156.808594 69.117188 156.777344 C 69.117188 156.714844 69.128906 156.660156 69.117188 156.605469 C 69.117188 156.554688 69.117188 156.519531 69.117188 156.488281 C 69.117188 156.457031 69.117188 156.4375 69.117188 156.425781 C 69.117188 156.414062 69.128906 156.402344 69.140625 156.414062 L 69.128906 156.457031 L 69.128906 156.5 L 69.117188 156.597656 L 69.117188 156.679688 C 69.117188 156.691406 69.117188 156.714844 69.117188 156.722656 L 69.117188 156.765625 C 69.117188 156.703125 69.128906 156.660156 69.128906 156.648438 C 69.140625 156.628906 69.140625 156.628906 69.148438 156.648438 C 69.160156 156.660156 69.160156 156.679688 69.171875 156.714844 C 69.183594 156.734375 69.191406 156.765625 69.203125 156.789062 C 69.203125 156.765625 69.203125 156.734375 69.203125 156.714844 C 69.203125 156.691406 69.203125 156.660156 69.214844 156.640625 C 69.214844 156.628906 69.214844 156.617188 69.214844 156.605469 C 69.214844 156.597656 69.214844 156.585938 69.226562 156.574219 C 69.226562 156.554688 69.234375 156.53125 69.234375 156.511719 C 69.214844 156.457031 69.203125 156.542969 69.191406 156.585938 C 69.191406 156.554688 69.183594 156.511719 69.183594 156.46875 C 69.183594 156.425781 69.171875 156.382812 69.171875 156.328125 C 69.171875 156.285156 69.171875 156.234375 69.183594 156.191406 C 69.191406 156.136719 69.203125 156.09375 69.214844 156.050781 C 69.234375 155.976562 69.246094 155.945312 69.265625 155.925781 C 69.277344 155.902344 69.300781 155.902344 69.308594 155.902344 C 69.320312 155.902344 69.34375 155.890625 69.351562 155.871094 C 69.375 155.851562 69.386719 155.808594 69.417969 155.722656 C 69.566406 155.285156 69.8125 154.835938 70.109375 154.410156 C 70.410156 153.984375 70.75 153.566406 71.132812 153.171875 L 71.207031 153.097656 C 71.230469 153.078125 71.261719 153.046875 71.28125 153.023438 L 71.433594 152.875 L 71.582031 152.726562 L 71.742188 152.578125 C 71.953125 152.382812 72.167969 152.183594 72.390625 152 C 72.828125 151.617188 73.289062 151.253906 73.765625 150.902344 C 73.832031 150.890625 73.777344 150.921875 73.722656 150.976562 C 73.789062 150.921875 73.863281 150.871094 73.9375 150.816406 C 74.011719 150.761719 74.078125 150.710938 74.140625 150.65625 C 74.214844 150.605469 74.277344 150.5625 74.34375 150.507812 C 74.40625 150.453125 74.480469 150.410156 74.546875 150.367188 C 74.683594 150.273438 74.824219 150.1875 74.949219 150.089844 C 75.015625 150.050781 75.089844 150.007812 75.152344 149.953125 C 75.21875 149.910156 75.292969 149.867188 75.355469 149.816406 C 75.441406 149.78125 75.496094 149.761719 75.546875 149.75 C 75.589844 149.738281 75.621094 149.738281 75.65625 149.738281 C 75.644531 149.738281 75.675781 149.707031 75.75 149.664062 C 75.824219 149.613281 75.941406 149.539062 76.089844 149.460938 C 76.378906 149.292969 76.785156 149.066406 77.199219 148.867188 C 77.308594 148.8125 77.414062 148.757812 77.511719 148.714844 C 77.617188 148.664062 77.710938 148.621094 77.820312 148.566406 C 78.023438 148.480469 78.214844 148.386719 78.375 148.320312 C 78.457031 148.289062 78.535156 148.257812 78.597656 148.226562 C 78.660156 148.195312 78.726562 148.171875 78.777344 148.152344 C 78.875 148.109375 78.9375 148.085938 78.949219 148.085938 L 78.949219 147.96875 C 79.621094 147.703125 79.195312 148.011719 79.800781 147.757812 C 79.84375 147.691406 79.941406 147.648438 80.046875 147.597656 C 80.101562 147.574219 80.164062 147.554688 80.230469 147.53125 C 80.292969 147.511719 80.355469 147.488281 80.421875 147.480469 C 80.484375 147.457031 80.546875 147.449219 80.613281 147.425781 C 80.675781 147.40625 80.742188 147.394531 80.792969 147.371094 C 80.902344 147.339844 80.996094 147.308594 81.039062 147.265625 C 81.039062 147.277344 81.347656 147.191406 81.347656 147.246094 C 81.421875 147.128906 81.667969 147.128906 81.859375 147.054688 C 81.925781 147.011719 81.796875 147.042969 81.742188 147.03125 C 81.890625 146.976562 82.042969 146.925781 82.191406 146.871094 C 82.285156 146.859375 82.339844 146.859375 82.363281 146.882812 C 82.371094 146.894531 82.339844 146.925781 82.246094 146.945312 C 82.320312 146.925781 82.414062 146.902344 82.519531 146.882812 C 82.628906 146.859375 82.757812 146.828125 82.894531 146.796875 C 83.035156 146.765625 83.183594 146.734375 83.34375 146.699219 C 83.503906 146.667969 83.683594 146.625 83.863281 146.59375 C 84.601562 146.457031 85.476562 146.316406 86.347656 146.230469 C 86.785156 146.199219 87.222656 146.167969 87.628906 146.15625 C 87.734375 146.15625 87.832031 146.15625 87.9375 146.148438 C 88.035156 146.148438 88.140625 146.148438 88.238281 146.148438 C 88.429688 146.148438 88.621094 146.15625 88.800781 146.167969 C 89.515625 146.199219 90.082031 146.285156 90.390625 146.328125 C 90.316406 146.285156 90.1875 146.253906 90.058594 146.230469 C 90.027344 146.222656 89.996094 146.222656 89.964844 146.210938 C 89.933594 146.199219 89.898438 146.199219 89.867188 146.1875 C 89.816406 146.167969 89.761719 146.148438 89.730469 146.113281 C 89.816406 146.113281 89.890625 146.113281 89.953125 146.113281 C 90.015625 146.125 90.070312 146.136719 90.113281 146.148438 C 90.210938 146.167969 90.285156 146.179688 90.359375 146.167969 C 90.378906 146.210938 90.445312 146.242188 90.519531 146.265625 C 90.59375 146.296875 90.679688 146.316406 90.773438 146.339844 C 90.816406 146.347656 90.871094 146.359375 90.914062 146.371094 C 90.957031 146.382812 91.007812 146.402344 91.050781 146.414062 C 91.136719 146.445312 91.210938 146.488281 91.265625 146.542969 L 91.371094 146.476562 C 91.414062 146.507812 91.46875 146.542969 91.511719 146.574219 C 91.59375 146.59375 91.671875 146.605469 91.746094 146.625 C 91.808594 146.648438 91.871094 146.660156 91.925781 146.667969 C 91.980469 146.679688 92.023438 146.691406 92.066406 146.699219 C 92.105469 146.710938 92.140625 146.722656 92.160156 146.734375 C 92.277344 146.765625 92.308594 146.777344 92.332031 146.785156 C 92.363281 146.796875 92.382812 146.808594 92.46875 146.851562 C 92.511719 146.871094 92.578125 146.894531 92.660156 146.9375 C 92.746094 146.976562 92.855469 147.019531 93.003906 147.085938 C 93.089844 147.117188 93.164062 147.148438 93.238281 147.179688 C 93.3125 147.210938 93.386719 147.246094 93.449219 147.265625 C 93.589844 147.320312 93.707031 147.363281 93.8125 147.40625 C 94.027344 147.488281 94.195312 147.566406 94.355469 147.683594 C 94.304688 147.640625 94.230469 147.542969 94.390625 147.617188 C 94.390625 147.660156 94.507812 147.714844 94.625 147.777344 C 94.6875 147.808594 94.75 147.84375 94.804688 147.875 C 94.859375 147.90625 94.890625 147.9375 94.902344 147.96875 C 95.070312 148.054688 95.574219 148.429688 95.457031 148.226562 C 95.488281 148.277344 95.605469 148.386719 95.691406 148.472656 C 95.765625 148.554688 95.808594 148.597656 95.65625 148.511719 C 95.734375 148.578125 95.808594 148.632812 95.871094 148.683594 C 95.933594 148.738281 96 148.789062 96.0625 148.824219 C 96.011719 148.769531 95.945312 148.707031 95.894531 148.652344 C 95.957031 148.695312 96.019531 148.75 96.074219 148.789062 C 96.128906 148.832031 96.179688 148.875 96.234375 148.917969 C 96.328125 149.003906 96.414062 149.078125 96.5 149.152344 C 96.585938 149.226562 96.660156 149.292969 96.734375 149.355469 C 96.808594 149.421875 96.894531 149.472656 96.992188 149.527344 L 96.839844 149.335938 C 96.917969 149.398438 96.980469 149.460938 97.042969 149.515625 C 97.109375 149.578125 97.160156 149.632812 97.214844 149.6875 C 97.269531 149.738281 97.3125 149.792969 97.34375 149.847656 C 97.375 149.898438 97.394531 149.941406 97.40625 149.984375 C 97.300781 149.898438 97.203125 149.816406 97.097656 149.730469 C 97.332031 149.941406 97.511719 150.125 97.695312 150.292969 C 97.78125 150.378906 97.863281 150.464844 97.960938 150.539062 C 98.046875 150.625 98.140625 150.710938 98.25 150.796875 L 98.121094 150.65625 C 98.152344 150.6875 98.195312 150.722656 98.25 150.761719 C 98.300781 150.804688 98.355469 150.859375 98.410156 150.914062 C 98.527344 151.03125 98.664062 151.167969 98.824219 151.328125 C 99.132812 151.648438 99.484375 152.0625 99.828125 152.480469 C 99.871094 152.535156 99.914062 152.585938 99.957031 152.640625 C 99.996094 152.695312 100.039062 152.746094 100.082031 152.800781 C 100.125 152.851562 100.167969 152.90625 100.210938 152.960938 C 100.253906 153.011719 100.285156 153.066406 100.328125 153.121094 C 100.402344 153.226562 100.488281 153.324219 100.5625 153.417969 C 100.636719 153.515625 100.703125 153.609375 100.777344 153.707031 C 100.839844 153.792969 100.902344 153.878906 100.96875 153.960938 C 101.019531 154.035156 101.074219 154.113281 101.128906 154.1875 C 101.222656 154.3125 101.308594 154.421875 101.363281 154.484375 C 101.332031 154.390625 101.296875 154.292969 101.277344 154.1875 L 101.449219 154.410156 L 101.617188 154.632812 C 101.574219 154.582031 101.320312 154.546875 101.265625 154.496094 C 101.339844 154.625 101.457031 154.816406 101.597656 155.050781 C 101.734375 155.296875 101.90625 155.59375 102.085938 155.933594 C 102.449219 156.617188 102.84375 157.449219 103.195312 158.300781 C 103.546875 159.15625 103.859375 160.019531 104.070312 160.742188 C 104.175781 161.105469 104.273438 161.4375 104.335938 161.703125 C 104.371094 161.84375 104.402344 161.960938 104.421875 162.066406 C 104.445312 162.171875 104.464844 162.257812 104.476562 162.320312 C 104.539062 162.769531 104.371094 162.429688 104.359375 162.429688 C 104.433594 162.683594 104.464844 162.738281 104.496094 162.78125 C 104.519531 162.824219 104.539062 162.855469 104.59375 163.078125 C 104.605469 163.207031 104.53125 163.070312 104.496094 163.003906 C 104.519531 163.101562 104.539062 163.195312 104.550781 163.269531 C 104.5625 163.34375 104.570312 163.386719 104.59375 163.398438 C 104.582031 163.269531 104.605469 163.226562 104.636719 163.207031 C 104.667969 163.1875 104.710938 163.175781 104.730469 163.109375 C 104.753906 163.207031 104.773438 163.304688 104.785156 163.398438 L 104.839844 163.6875 L 104.773438 163.675781 C 104.785156 163.738281 104.847656 163.816406 104.902344 163.941406 C 104.933594 164.007812 104.964844 164.09375 105 164.1875 C 105.03125 164.285156 105.050781 164.410156 105.0625 164.550781 C 105.191406 165.53125 105.320312 166.597656 105.351562 167.589844 C 105.320312 167.578125 105.277344 167.367188 105.242188 167.164062 C 105.242188 167.289062 105.277344 167.492188 105.253906 167.621094 C 105.308594 167.375 105.308594 168.039062 105.328125 167.84375 C 105.371094 168.027344 105.402344 168.21875 105.414062 168.421875 C 105.425781 168.625 105.4375 168.828125 105.425781 169.027344 C 105.425781 169.1875 105.414062 169.359375 105.414062 169.507812 C 105.382812 169.464844 105.339844 169.421875 105.308594 169.378906 C 105.191406 169.253906 105.074219 169.125 104.964844 169.019531 C 104.914062 168.964844 104.871094 168.921875 104.828125 168.878906 C 104.785156 168.847656 104.753906 168.816406 104.722656 168.792969 C 104.699219 168.867188 104.785156 168.890625 104.742188 168.976562 C 104.65625 168.976562 104.679688 168.890625 104.625 168.921875 C 104.710938 168.792969 104.539062 168.792969 104.605469 168.644531 L 104.53125 168.699219 L 104.539062 168.632812 C 104.402344 168.570312 104.378906 168.558594 104.371094 168.550781 C 104.359375 168.539062 104.371094 168.515625 104.273438 168.433594 C 104.15625 168.347656 104.019531 168.390625 103.984375 168.304688 C 103.984375 168.316406 103.976562 168.367188 103.941406 168.355469 C 103.984375 168.292969 103.824219 168.335938 103.867188 168.261719 C 103.835938 168.238281 103.742188 168.15625 103.707031 168.261719 C 103.71875 168.238281 103.707031 168.195312 103.699219 168.175781 C 103.6875 168.144531 103.699219 168.132812 103.730469 168.132812 C 103.699219 168.113281 103.6875 168.070312 103.644531 168.070312 L 103.664062 168.121094 C 103.558594 168.058594 103.558594 167.953125 103.429688 167.972656 L 103.441406 168.039062 C 103.378906 167.996094 103.324219 167.960938 103.367188 167.867188 L 103.453125 167.886719 C 103.355469 167.8125 103.292969 167.769531 103.175781 167.75 L 103.207031 167.769531 C 103.1875 167.769531 103.152344 167.761719 103.121094 167.761719 C 103.089844 167.75 103.046875 167.738281 103.003906 167.71875 C 102.917969 167.683594 102.824219 167.644531 102.726562 167.609375 C 102.632812 167.566406 102.535156 167.535156 102.449219 167.503906 C 102.363281 167.484375 102.289062 167.472656 102.246094 167.472656 L 102.246094 167.566406 L 102.121094 167.566406 C 102.128906 167.578125 102.28125 167.417969 102.300781 167.40625 C 102.246094 167.375 102.164062 167.324219 102.035156 167.25 C 101.96875 167.207031 101.90625 167.171875 101.84375 167.132812 C 101.769531 167.089844 101.691406 167.046875 101.617188 167.003906 C 101.46875 166.917969 101.320312 166.832031 101.203125 166.757812 C 101.085938 166.683594 100.988281 166.628906 100.945312 166.585938 C 100.894531 166.511719 101 166.46875 101 166.460938 C 100.894531 166.4375 100.925781 166.511719 100.851562 166.460938 C 100.839844 166.4375 100.882812 166.40625 100.902344 166.40625 C 100.863281 166.394531 100.851562 166.351562 100.828125 166.382812 C 100.863281 166.4375 100.785156 166.511719 100.777344 166.578125 L 100.679688 166.511719 L 100.710938 166.460938 C 100.691406 166.449219 100.574219 166.578125 100.5 166.492188 C 100.351562 166.382812 100.167969 166.308594 100.007812 166.214844 C 100.03125 166.183594 100.074219 166.183594 100.113281 166.183594 C 100.09375 166.171875 100.0625 166.160156 100.050781 166.128906 C 100.0625 166.203125 99.964844 166.128906 99.976562 166.171875 C 99.878906 166.203125 99.816406 166.183594 99.742188 166.148438 C 99.679688 166.117188 99.613281 166.074219 99.539062 166.097656 C 99.507812 166.160156 99.199219 166.660156 98.898438 167.171875 C 98.601562 167.683594 98.3125 168.195312 98.269531 168.273438 C 98.238281 168.25 98.21875 168.238281 98.21875 168.21875 C 98.207031 168.261719 98.257812 168.304688 98.292969 168.292969 L 98.335938 168.21875 C 98.417969 168.21875 98.324219 168.273438 98.398438 168.304688 C 98.378906 168.367188 98.300781 168.355469 98.25 168.335938 C 98.292969 168.367188 98.324219 168.433594 98.378906 168.378906 C 98.410156 168.433594 98.335938 168.453125 98.378906 168.507812 C 98.417969 168.507812 98.503906 168.464844 98.535156 168.527344 L 98.527344 168.539062 C 98.601562 168.65625 98.738281 168.515625 98.804688 168.632812 L 98.78125 168.644531 C 98.792969 168.699219 98.890625 168.6875 98.929688 168.75 C 98.921875 168.730469 98.929688 168.675781 98.972656 168.6875 C 99.027344 168.761719 99.089844 168.75 99.125 168.828125 L 99.207031 168.792969 C 99.21875 168.804688 99.242188 168.816406 99.261719 168.828125 C 99.285156 168.835938 99.304688 168.847656 99.324219 168.867188 C 99.378906 168.902344 99.433594 168.921875 99.507812 168.964844 C 99.636719 169.027344 99.796875 169.105469 99.957031 169.1875 C 100.03125 169.230469 100.113281 169.273438 100.191406 169.304688 C 100.265625 169.347656 100.339844 169.378906 100.402344 169.421875 C 100.53125 169.5 100.636719 169.5625 100.703125 169.59375 L 100.691406 169.59375 C 100.734375 169.625 100.785156 169.648438 100.851562 169.691406 C 100.902344 169.722656 100.96875 169.765625 101.03125 169.808594 C 101.097656 169.851562 101.160156 169.894531 101.222656 169.933594 C 101.289062 169.976562 101.363281 170.019531 101.425781 170.074219 C 101.566406 170.167969 101.703125 170.265625 101.832031 170.351562 C 101.863281 170.371094 101.894531 170.394531 101.929688 170.414062 C 101.960938 170.4375 101.992188 170.457031 102.011719 170.480469 C 102.066406 170.523438 102.128906 170.554688 102.171875 170.574219 C 102.183594 170.671875 102.269531 170.722656 102.3125 170.789062 C 102.300781 170.746094 102.34375 170.714844 102.363281 170.734375 C 102.523438 170.894531 102.40625 170.714844 102.589844 170.839844 C 102.640625 170.875 102.738281 170.949219 102.835938 171.035156 C 102.886719 171.078125 102.929688 171.128906 102.984375 171.183594 C 103.035156 171.234375 103.089844 171.289062 103.144531 171.351562 C 103.195312 171.40625 103.25 171.472656 103.292969 171.523438 C 103.335938 171.578125 103.378906 171.640625 103.421875 171.695312 C 103.496094 171.800781 103.558594 171.886719 103.589844 171.941406 C 103.632812 171.949219 103.664062 171.960938 103.699219 171.984375 C 103.730469 172.003906 103.75 172.023438 103.773438 172.058594 C 103.816406 172.109375 103.859375 172.164062 103.921875 172.183594 L 103.898438 172.195312 C 103.933594 172.21875 103.976562 172.269531 104.027344 172.335938 C 104.058594 172.367188 104.09375 172.410156 104.125 172.453125 C 104.15625 172.496094 104.1875 172.535156 104.21875 172.578125 C 104.285156 172.664062 104.347656 172.761719 104.402344 172.835938 C 104.433594 172.867188 104.453125 172.910156 104.476562 172.929688 C 104.496094 172.964844 104.519531 172.984375 104.53125 172.996094 L 104.53125 172.972656 C 104.65625 173.039062 104.5625 173.089844 104.59375 173.199219 C 104.679688 173.125 104.796875 173.175781 104.828125 173.199219 L 104.808594 173.207031 C 104.859375 173.25 105.03125 173.316406 105.105469 173.390625 L 105.050781 173.421875 C 105.117188 173.441406 105.160156 173.496094 105.203125 173.5625 C 105.191406 173.582031 105.191406 173.601562 105.191406 173.625 C 105.179688 173.667969 105.179688 173.710938 105.179688 173.753906 L 105.074219 173.828125 L 104.964844 173.914062 L 104.976562 173.945312 C 104.976562 173.945312 105.105469 173.996094 105.296875 174.0625 C 105.359375 174.082031 105.425781 174.105469 105.5 174.125 C 105.519531 174.148438 105.53125 174.15625 105.554688 174.179688 L 105.46875 174.382812 L 105.488281 174.390625 C 105.488281 174.390625 105.605469 174.339844 105.796875 174.242188 C 105.796875 174.242188 105.808594 174.230469 105.808594 174.230469 C 105.882812 174.253906 105.957031 174.273438 106.042969 174.296875 C 106.332031 174.371094 106.628906 174.433594 106.898438 174.46875 C 107.164062 174.5 107.386719 174.507812 107.503906 174.46875 L 107.570312 174.488281 C 107.570312 174.46875 107.570312 174.457031 107.570312 174.433594 C 107.609375 174.382812 107.558594 174.328125 107.609375 174.351562 L 107.578125 174.433594 C 107.609375 174.371094 107.632812 174.425781 107.664062 174.457031 C 107.675781 174.433594 107.6875 174.402344 107.71875 174.390625 C 107.695312 174.371094 107.6875 174.390625 107.675781 174.402344 C 107.664062 174.359375 107.621094 174.296875 107.652344 174.265625 C 107.675781 174.199219 107.75 174.285156 107.78125 174.210938 C 107.867188 174.019531 107.964844 173.847656 108.070312 173.667969 C 108.175781 173.496094 108.28125 173.316406 108.390625 173.125 C 108.421875 173.125 108.410156 173.132812 108.410156 173.15625 C 108.453125 173.027344 108.527344 172.941406 108.570312 172.824219 C 108.613281 172.8125 108.644531 172.824219 108.675781 172.835938 C 108.644531 172.824219 108.730469 172.6875 108.828125 172.535156 C 108.847656 172.503906 108.878906 172.460938 108.902344 172.429688 C 108.921875 172.398438 108.953125 172.367188 108.976562 172.335938 C 109.019531 172.28125 109.050781 172.25 109.050781 172.25 L 108.964844 172.175781 C 109.050781 172.066406 109.09375 172.226562 109.148438 172.109375 C 109.105469 172.035156 109.136719 172.003906 109.1875 171.972656 C 109.230469 171.941406 109.285156 171.917969 109.273438 171.867188 C 109.285156 171.875 109.328125 171.832031 109.359375 171.867188 C 109.304688 171.789062 109.390625 171.800781 109.402344 171.757812 C 109.390625 171.726562 109.382812 171.746094 109.347656 171.738281 L 109.390625 171.652344 C 109.433594 171.640625 109.476562 171.671875 109.457031 171.707031 C 109.550781 171.621094 109.816406 171.386719 110.09375 171.128906 C 110.371094 170.882812 110.660156 170.617188 110.746094 170.511719 C 110.671875 170.488281 110.640625 170.585938 110.542969 170.53125 C 110.554688 170.4375 110.640625 170.46875 110.617188 170.40625 C 110.746094 170.5 110.765625 170.320312 110.917969 170.394531 L 110.90625 170.308594 L 110.96875 170.320312 C 111.152344 170.019531 110.992188 170.234375 111.226562 170.042969 C 111.34375 169.914062 111.320312 169.773438 111.429688 169.734375 C 111.40625 169.734375 111.355469 169.722656 111.375 169.679688 C 111.429688 169.734375 111.429688 169.5625 111.492188 169.59375 C 111.523438 169.550781 111.632812 169.464844 111.523438 169.421875 C 111.578125 169.445312 111.683594 169.371094 111.664062 169.457031 C 111.695312 169.421875 111.738281 169.414062 111.75 169.371094 L 111.683594 169.390625 C 111.78125 169.273438 111.898438 169.285156 111.90625 169.144531 L 111.84375 169.15625 C 111.90625 169.09375 111.949219 169.027344 112.046875 169.082031 L 112.003906 169.167969 C 112.109375 169.0625 112.175781 168.996094 112.226562 168.867188 L 112.195312 168.902344 C 112.21875 168.804688 112.367188 168.601562 112.515625 168.390625 C 112.664062 168.175781 112.804688 167.960938 112.804688 167.867188 L 112.695312 167.855469 L 112.738281 167.71875 C 112.730469 167.726562 112.855469 167.910156 112.855469 167.929688 C 112.953125 167.824219 113.242188 167.503906 113.519531 167.171875 C 113.65625 167.003906 113.796875 166.832031 113.914062 166.695312 C 113.964844 166.617188 114.019531 166.554688 114.0625 166.5 C 114.105469 166.449219 114.136719 166.40625 114.167969 166.382812 C 114.265625 166.320312 114.285156 166.449219 114.285156 166.449219 C 114.339844 166.320312 114.253906 166.351562 114.328125 166.265625 C 114.359375 166.246094 114.371094 166.308594 114.371094 166.332031 C 114.394531 166.289062 114.445312 166.265625 114.414062 166.234375 C 114.351562 166.265625 114.285156 166.191406 114.222656 166.171875 C 114.253906 166.128906 114.285156 166.097656 114.316406 166.054688 L 114.359375 166.097656 C 114.382812 166.074219 114.265625 165.9375 114.371094 165.832031 C 114.53125 165.648438 114.648438 165.402344 114.777344 165.199219 C 114.808594 165.222656 114.796875 165.277344 114.796875 165.339844 C 114.820312 165.308594 114.828125 165.265625 114.871094 165.242188 C 114.789062 165.265625 114.882812 165.125 114.839844 165.160156 C 114.820312 165.042969 114.863281 164.945312 114.914062 164.859375 C 114.957031 164.773438 115.011719 164.6875 115 164.59375 C 114.9375 164.5625 114.445312 164.230469 113.933594 163.933594 C 113.421875 163.632812 112.898438 163.355469 112.824219 163.324219 C 112.835938 163.292969 112.855469 163.261719 112.878906 163.261719 C 112.835938 163.25 112.792969 163.3125 112.804688 163.34375 L 112.878906 163.386719 C 112.878906 163.472656 112.824219 163.386719 112.792969 163.464844 C 112.761719 163.453125 112.75 163.429688 112.75 163.398438 C 112.75 163.367188 112.761719 163.335938 112.761719 163.304688 C 112.75 163.324219 112.71875 163.34375 112.707031 163.367188 C 112.695312 163.386719 112.6875 163.410156 112.71875 163.429688 C 112.664062 163.472656 112.644531 163.386719 112.589844 163.441406 C 112.589844 163.496094 112.621094 163.582031 112.570312 163.613281 L 112.558594 163.601562 C 112.496094 163.644531 112.496094 163.699219 112.496094 163.761719 C 112.496094 163.816406 112.496094 163.867188 112.429688 163.910156 L 112.421875 163.890625 C 112.367188 163.910156 112.367188 164.007812 112.292969 164.050781 C 112.3125 164.039062 112.367188 164.050781 112.355469 164.09375 C 112.269531 164.144531 112.269531 164.21875 112.195312 164.253906 L 112.21875 164.347656 C 112.207031 164.371094 112.195312 164.378906 112.175781 164.410156 C 112.164062 164.433594 112.144531 164.464844 112.121094 164.488281 C 112.089844 164.539062 112.035156 164.613281 111.992188 164.679688 C 111.898438 164.828125 111.78125 165 111.652344 165.167969 C 111.394531 165.511719 111.109375 165.851562 110.992188 165.988281 L 110.992188 165.96875 C 110.808594 166.183594 110.511719 166.492188 110.191406 166.8125 C 109.882812 167.132812 109.550781 167.449219 109.359375 167.707031 C 109.242188 167.71875 109.15625 167.824219 109.070312 167.878906 C 109.136719 167.855469 109.148438 167.910156 109.113281 167.941406 C 108.878906 168.144531 109.136719 167.996094 108.921875 168.230469 C 108.816406 168.378906 108.484375 168.675781 108.15625 168.976562 C 108.144531 168.984375 108.132812 168.996094 108.121094 168.996094 C 108.121094 168.953125 108.121094 168.910156 108.121094 168.867188 C 108.113281 168.699219 108.101562 168.539062 108.082031 168.378906 C 108.070312 168.304688 108.070312 168.21875 108.058594 168.144531 C 108.046875 168.070312 108.039062 167.984375 108.039062 167.910156 C 108.027344 167.75 108.027344 167.578125 108.027344 167.386719 C 108.039062 167.417969 108.046875 167.441406 108.058594 167.472656 C 108.070312 167.332031 108.058594 167.132812 108.039062 166.90625 C 108.027344 166.789062 108.015625 166.671875 108.003906 166.542969 C 107.996094 166.417969 107.996094 166.300781 107.996094 166.171875 C 107.996094 166.308594 107.953125 166.4375 107.921875 166.148438 C 107.921875 165.871094 107.886719 165.628906 107.867188 165.414062 C 107.84375 165.199219 107.824219 165 107.824219 164.796875 C 107.804688 164.730469 107.78125 164.667969 107.761719 164.605469 L 107.695312 164.410156 C 107.632812 163.921875 107.484375 163.089844 107.25 162.085938 C 107.015625 161.085938 106.671875 159.921875 106.265625 158.78125 C 105.863281 157.640625 105.371094 156.53125 104.925781 155.605469 C 104.464844 154.675781 104.039062 153.941406 103.792969 153.515625 L 103.847656 153.578125 C 103.464844 152.929688 102.960938 152.128906 102.355469 151.285156 C 101.746094 150.433594 101.019531 149.527344 100.222656 148.683594 C 99.828125 148.257812 99.402344 147.851562 98.972656 147.46875 C 98.546875 147.085938 98.109375 146.722656 97.671875 146.402344 C 97.234375 146.070312 96.808594 145.785156 96.394531 145.527344 C 95.976562 145.273438 95.582031 145.058594 95.222656 144.878906 C 95.167969 144.84375 95.113281 144.804688 95.0625 144.769531 C 95.007812 144.738281 94.945312 144.695312 94.878906 144.664062 C 94.816406 144.632812 94.75 144.589844 94.6875 144.558594 C 94.65625 144.535156 94.625 144.527344 94.589844 144.503906 C 94.558594 144.484375 94.527344 144.472656 94.484375 144.449219 C 94.347656 144.386719 94.207031 144.324219 94.078125 144.257812 C 93.941406 144.207031 93.8125 144.140625 93.695312 144.089844 C 93.824219 144.152344 93.867188 144.195312 93.84375 144.195312 C 93.824219 144.207031 93.738281 144.183594 93.644531 144.140625 C 93.546875 144.109375 93.472656 144.078125 93.398438 144.046875 C 93.324219 144.023438 93.257812 144.003906 93.207031 143.980469 C 93.097656 143.9375 93.023438 143.917969 92.972656 143.90625 C 92.863281 143.875 92.855469 143.875 92.832031 143.886719 C 92.8125 143.886719 92.800781 143.898438 92.695312 143.863281 C 92.640625 143.855469 92.566406 143.832031 92.449219 143.800781 C 92.394531 143.789062 92.332031 143.769531 92.246094 143.746094 C 92.171875 143.726562 92.085938 143.714844 91.988281 143.683594 C 91.871094 143.660156 91.746094 143.628906 91.59375 143.597656 C 91.445312 143.566406 91.277344 143.535156 91.09375 143.503906 C 91 143.480469 90.902344 143.46875 90.804688 143.460938 C 90.710938 143.449219 90.605469 143.425781 90.496094 143.417969 C 90.390625 143.394531 90.285156 143.386719 90.167969 143.375 C 90.058594 143.363281 89.941406 143.351562 89.824219 143.332031 C 88.875 143.234375 87.789062 143.214844 86.722656 143.289062 Z M 94.398438 147.703125 C 94.410156 147.703125 94.410156 147.714844 94.421875 147.714844 C 94.410156 147.714844 94.410156 147.703125 94.398438 147.703125 Z M 98.300781 168.355469 C 98.292969 168.347656 98.28125 168.347656 98.257812 168.347656 C 98.269531 168.347656 98.292969 168.347656 98.300781 168.355469 Z M 102.324219 167.441406 C 102.324219 167.429688 102.324219 167.429688 102.324219 167.441406 Z M 103.996094 168.324219 Z M 107.578125 174.574219 C 107.652344 174.550781 107.664062 174.507812 107.695312 174.457031 C 107.609375 174.476562 107.578125 174.519531 107.578125 174.574219 Z M 107.6875 174.457031 Z M 112.761719 163.324219 C 112.773438 163.3125 112.773438 163.304688 112.773438 163.28125 C 112.773438 163.292969 112.761719 163.3125 112.761719 163.324219 Z M 112.855469 167.953125 C 112.855469 167.953125 112.847656 167.953125 112.855469 167.953125 Z M 111.429688 169.742188 Z M 111.429688 169.742188 " fill-opacity="1" fill-rule="nonzero"/></g><g fill="#ffffff" fill-opacity="1"><g transform="translate(64.294783, 204.841275)"><g><path d="M 14.859375 0.703125 C 12.796875 0.703125 10.882812 0.375 9.125 -0.28125 C 7.375 -0.9375 5.859375 -1.875 4.578125 -3.09375 C 3.304688 -4.3125 2.3125 -5.769531 1.59375 -7.46875 C 0.882812 -9.164062 0.53125 -11.046875 0.53125 -13.109375 C 0.53125 -15.867188 1.101562 -18.285156 2.25 -20.359375 C 3.394531 -22.429688 5.003906 -24.039062 7.078125 -25.1875 C 9.148438 -26.34375 11.570312 -26.921875 14.34375 -26.921875 C 15.90625 -26.921875 17.414062 -26.757812 18.875 -26.4375 C 20.34375 -26.125 21.640625 -25.6875 22.765625 -25.125 C 23.890625 -24.5625 24.734375 -23.929688 25.296875 -23.234375 L 18.171875 -8.296875 L 17.84375 -8.40625 C 17.84375 -9.289062 17.804688 -10.320312 17.734375 -11.5 C 17.671875 -12.6875 17.5625 -13.925781 17.40625 -15.21875 C 17.257812 -16.507812 17.0625 -17.773438 16.8125 -19.015625 C 16.570312 -20.253906 16.269531 -21.367188 15.90625 -22.359375 C 15.539062 -23.359375 15.117188 -24.15625 14.640625 -24.75 C 14.160156 -25.351562 13.601562 -25.65625 12.96875 -25.65625 C 12.382812 -25.65625 11.882812 -25.34375 11.46875 -24.71875 C 11.0625 -24.101562 10.75 -23.300781 10.53125 -22.3125 C 10.320312 -21.332031 10.21875 -20.300781 10.21875 -19.21875 C 10.21875 -17.394531 10.4375 -15.664062 10.875 -14.03125 C 11.3125 -12.40625 11.925781 -10.972656 12.71875 -9.734375 C 13.519531 -8.492188 14.457031 -7.519531 15.53125 -6.8125 C 16.613281 -6.113281 17.796875 -5.765625 19.078125 -5.765625 C 19.828125 -5.765625 20.585938 -5.914062 21.359375 -6.21875 C 22.140625 -6.519531 22.800781 -6.921875 23.34375 -7.421875 C 23.894531 -7.929688 24.207031 -8.476562 24.28125 -9.0625 C 24.84375 -8.875 25.222656 -8.421875 25.421875 -7.703125 C 25.617188 -6.992188 25.585938 -6.164062 25.328125 -5.21875 C 25.078125 -4.269531 24.546875 -3.34375 23.734375 -2.4375 C 22.929688 -1.539062 21.800781 -0.789062 20.34375 -0.1875 C 18.894531 0.40625 17.066406 0.703125 14.859375 0.703125 Z M 14.859375 0.703125 "/></g></g></g><g fill="#ffffff" fill-opacity="1"><g transform="translate(88.820656, 204.841275)"><g><path d="M 1.046875 0 L 1.046875 -26.171875 L 13.703125 -26.171875 L 13.703125 -17.5625 C 13.703125 -18.664062 13.90625 -19.757812 14.3125 -20.84375 C 14.726562 -21.9375 15.316406 -22.941406 16.078125 -23.859375 C 16.835938 -24.773438 17.734375 -25.503906 18.765625 -26.046875 C 19.796875 -26.597656 20.941406 -26.875 22.203125 -26.875 C 23.097656 -26.875 23.941406 -26.675781 24.734375 -26.28125 C 25.535156 -25.882812 26.039062 -25.453125 26.25 -24.984375 L 21.640625 -8.921875 L 21.296875 -8.921875 C 21.296875 -9.910156 21.171875 -10.910156 20.921875 -11.921875 C 20.679688 -12.941406 20.328125 -13.878906 19.859375 -14.734375 C 19.390625 -15.597656 18.828125 -16.285156 18.171875 -16.796875 C 17.515625 -17.304688 16.785156 -17.5625 15.984375 -17.5625 C 15.265625 -17.5625 14.703125 -17.351562 14.296875 -16.9375 C 13.898438 -16.519531 13.703125 -16.0625 13.703125 -15.5625 L 13.703125 0 Z M 1.046875 0 "/></g></g></g><g fill="#ffffff" fill-opacity="1"><g transform="translate(113.697906, 204.841275)"><g><path d="M 15.5 0.703125 C 13.320312 0.703125 11.320312 0.375 9.5 -0.28125 C 7.6875 -0.9375 6.101562 -1.875 4.75 -3.09375 C 3.40625 -4.3125 2.363281 -5.769531 1.625 -7.46875 C 0.894531 -9.164062 0.53125 -11.046875 0.53125 -13.109375 C 0.53125 -15.867188 1.101562 -18.285156 2.25 -20.359375 C 3.394531 -22.429688 5.003906 -24.039062 7.078125 -25.1875 C 9.148438 -26.34375 11.570312 -26.921875 14.34375 -26.921875 C 15.789062 -26.921875 17.191406 -26.738281 18.546875 -26.375 C 19.910156 -26.007812 21.132812 -25.429688 22.21875 -24.640625 C 23.3125 -23.859375 24.179688 -22.847656 24.828125 -21.609375 C 25.472656 -20.367188 25.796875 -18.859375 25.796875 -17.078125 C 25.796875 -15.742188 25.546875 -14.539062 25.046875 -13.46875 C 24.554688 -12.40625 23.890625 -11.492188 23.046875 -10.734375 C 22.203125 -9.972656 21.265625 -9.394531 20.234375 -9 C 19.203125 -8.601562 18.140625 -8.40625 17.046875 -8.40625 C 16.367188 -8.40625 15.679688 -8.476562 14.984375 -8.625 C 14.296875 -8.78125 13.632812 -8.972656 13 -9.203125 C 13.519531 -7.847656 14.296875 -6.800781 15.328125 -6.0625 C 16.359375 -5.320312 17.679688 -4.953125 19.296875 -4.953125 C 19.859375 -4.953125 20.445312 -5.082031 21.0625 -5.34375 C 21.6875 -5.601562 22.28125 -5.9375 22.84375 -6.34375 C 23.40625 -6.75 23.878906 -7.191406 24.265625 -7.671875 C 24.648438 -8.160156 24.867188 -8.625 24.921875 -9.0625 C 25.484375 -8.875 25.863281 -8.421875 26.0625 -7.703125 C 26.257812 -6.992188 26.234375 -6.164062 25.984375 -5.21875 C 25.742188 -4.269531 25.21875 -3.34375 24.40625 -2.4375 C 23.59375 -1.539062 22.453125 -0.789062 20.984375 -0.1875 C 19.523438 0.40625 17.695312 0.703125 15.5 0.703125 Z M 12.578125 -10.640625 C 13.378906 -11.140625 14.082031 -11.960938 14.6875 -13.109375 C 15.300781 -14.253906 15.78125 -15.570312 16.125 -17.0625 C 16.476562 -18.550781 16.65625 -20.007812 16.65625 -21.4375 C 16.65625 -22.75 16.503906 -23.671875 16.203125 -24.203125 C 15.898438 -24.742188 15.570312 -25.015625 15.21875 -25.015625 C 14.726562 -25.015625 14.285156 -24.722656 13.890625 -24.140625 C 13.503906 -23.554688 13.1875 -22.765625 12.9375 -21.765625 C 12.695312 -20.773438 12.507812 -19.65625 12.375 -18.40625 C 12.25 -17.164062 12.1875 -15.90625 12.1875 -14.625 C 12.1875 -13.894531 12.222656 -13.203125 12.296875 -12.546875 C 12.367188 -11.890625 12.460938 -11.253906 12.578125 -10.640625 Z M 12.578125 -10.640625 "/></g></g></g><g fill="#ffffff" fill-opacity="1"><g transform="translate(138.8914, 204.841275)"><g><path d="M 0.53125 -13.078125 C 0.53125 -15.535156 0.875 -17.597656 1.5625 -19.265625 C 2.25 -20.941406 3.175781 -22.285156 4.34375 -23.296875 C 5.519531 -24.304688 6.851562 -25.035156 8.34375 -25.484375 C 9.832031 -25.941406 11.375 -26.171875 12.96875 -26.171875 L 27.40625 -26.171875 L 27.4375 -6.640625 C 27.4375 -5.660156 27.566406 -4.6875 27.828125 -3.71875 C 28.085938 -2.757812 28.5 -2 29.0625 -1.4375 C 28.539062 -0.875 27.820312 -0.378906 26.90625 0.046875 C 26 0.484375 24.984375 0.703125 23.859375 0.703125 C 22.410156 0.703125 21.21875 0.539062 20.28125 0.21875 C 19.34375 -0.09375 18.472656 -0.625 17.671875 -1.375 C 17.179688 -0.6875 16.585938 -0.195312 15.890625 0.09375 C 15.203125 0.382812 14.570312 0.554688 14 0.609375 C 13.425781 0.671875 13.082031 0.703125 12.96875 0.703125 C 11.28125 0.703125 9.691406 0.453125 8.203125 -0.046875 C 6.710938 -0.554688 5.390625 -1.359375 4.234375 -2.453125 C 3.078125 -3.554688 2.171875 -4.976562 1.515625 -6.71875 C 0.859375 -8.46875 0.53125 -10.585938 0.53125 -13.078125 Z M 12.828125 -6.671875 C 12.828125 -5.710938 12.832031 -4.757812 12.84375 -3.8125 C 12.851562 -2.863281 12.953125 -2.078125 13.140625 -1.453125 C 13.328125 -0.835938 13.679688 -0.53125 14.203125 -0.53125 C 14.640625 -0.53125 14.945312 -0.726562 15.125 -1.125 C 15.300781 -1.519531 15.40625 -2.003906 15.4375 -2.578125 C 15.476562 -3.148438 15.5 -3.695312 15.5 -4.21875 L 15.46875 -24.53125 C 15.1875 -24.8125 14.890625 -24.953125 14.578125 -24.953125 C 13.785156 -24.953125 13.296875 -24.539062 13.109375 -23.71875 C 12.921875 -22.894531 12.828125 -21.570312 12.828125 -19.75 Z M 12.828125 -6.671875 "/></g></g></g><g fill="#ffffff" fill-opacity="1"><g transform="translate(197.270111, 217.559454)"><g><path d="M 2.671875 0.0625 C 2.253906 0.0625 1.875 -0.0078125 1.53125 -0.15625 C 1.195312 -0.300781 0.929688 -0.507812 0.734375 -0.78125 C 0.546875 -1.050781 0.445312 -1.367188 0.4375 -1.734375 L 1.734375 -1.734375 C 1.753906 -1.484375 1.84375 -1.285156 2 -1.140625 C 2.15625 -1.003906 2.367188 -0.9375 2.640625 -0.9375 C 2.929688 -0.9375 3.15625 -1.003906 3.3125 -1.140625 C 3.46875 -1.273438 3.546875 -1.453125 3.546875 -1.671875 C 3.546875 -1.847656 3.488281 -1.992188 3.375 -2.109375 C 3.269531 -2.222656 3.132812 -2.3125 2.96875 -2.375 C 2.8125 -2.4375 2.585938 -2.507812 2.296875 -2.59375 C 1.910156 -2.707031 1.59375 -2.820312 1.34375 -2.9375 C 1.101562 -3.050781 0.894531 -3.21875 0.71875 -3.4375 C 0.539062 -3.664062 0.453125 -3.972656 0.453125 -4.359375 C 0.453125 -4.710938 0.539062 -5.019531 0.71875 -5.28125 C 0.894531 -5.550781 1.144531 -5.753906 1.46875 -5.890625 C 1.789062 -6.035156 2.160156 -6.109375 2.578125 -6.109375 C 3.203125 -6.109375 3.707031 -5.957031 4.09375 -5.65625 C 4.476562 -5.351562 4.691406 -4.929688 4.734375 -4.390625 L 3.40625 -4.390625 C 3.394531 -4.597656 3.304688 -4.769531 3.140625 -4.90625 C 2.972656 -5.039062 2.757812 -5.109375 2.5 -5.109375 C 2.257812 -5.109375 2.066406 -5.046875 1.921875 -4.921875 C 1.785156 -4.804688 1.71875 -4.632812 1.71875 -4.40625 C 1.71875 -4.238281 1.769531 -4.101562 1.875 -4 C 1.976562 -3.894531 2.109375 -3.804688 2.265625 -3.734375 C 2.429688 -3.671875 2.65625 -3.597656 2.9375 -3.515625 C 3.332031 -3.398438 3.648438 -3.285156 3.890625 -3.171875 C 4.140625 -3.054688 4.351562 -2.878906 4.53125 -2.640625 C 4.707031 -2.410156 4.796875 -2.113281 4.796875 -1.75 C 4.796875 -1.425781 4.710938 -1.125 4.546875 -0.84375 C 4.378906 -0.570312 4.132812 -0.351562 3.8125 -0.1875 C 3.5 -0.0195312 3.117188 0.0625 2.671875 0.0625 Z M 2.671875 0.0625 "/></g></g></g><g fill="#ffffff" fill-opacity="1"><g transform="translate(203.572546, 217.559454)"><g><path d="M 3.390625 0.0625 C 2.828125 0.0625 2.304688 -0.0664062 1.828125 -0.328125 C 1.359375 -0.597656 0.984375 -0.96875 0.703125 -1.4375 C 0.429688 -1.90625 0.296875 -2.4375 0.296875 -3.03125 C 0.296875 -3.613281 0.429688 -4.140625 0.703125 -4.609375 C 0.984375 -5.078125 1.359375 -5.441406 1.828125 -5.703125 C 2.304688 -5.972656 2.828125 -6.109375 3.390625 -6.109375 C 3.960938 -6.109375 4.484375 -5.972656 4.953125 -5.703125 C 5.421875 -5.441406 5.789062 -5.078125 6.0625 -4.609375 C 6.332031 -4.140625 6.46875 -3.613281 6.46875 -3.03125 C 6.46875 -2.4375 6.332031 -1.90625 6.0625 -1.4375 C 5.789062 -0.96875 5.414062 -0.597656 4.9375 -0.328125 C 4.46875 -0.0664062 3.953125 0.0625 3.390625 0.0625 Z M 3.390625 -1.015625 C 3.753906 -1.015625 4.070312 -1.097656 4.34375 -1.265625 C 4.625 -1.429688 4.84375 -1.664062 5 -1.96875 C 5.15625 -2.269531 5.234375 -2.625 5.234375 -3.03125 C 5.234375 -3.425781 5.15625 -3.773438 5 -4.078125 C 4.84375 -4.378906 4.625 -4.609375 4.34375 -4.765625 C 4.070312 -4.929688 3.753906 -5.015625 3.390625 -5.015625 C 3.023438 -5.015625 2.703125 -4.929688 2.421875 -4.765625 C 2.148438 -4.609375 1.9375 -4.378906 1.78125 -4.078125 C 1.625 -3.773438 1.546875 -3.425781 1.546875 -3.03125 C 1.546875 -2.625 1.625 -2.269531 1.78125 -1.96875 C 1.9375 -1.664062 2.148438 -1.429688 2.421875 -1.265625 C 2.703125 -1.097656 3.023438 -1.015625 3.390625 -1.015625 Z M 3.390625 -1.015625 "/></g></g></g><g fill="#ffffff" fill-opacity="1"><g transform="translate(211.392396, 217.559454)"><g><path d="M 4.3125 -6.015625 L 4.3125 -5.046875 L 1.796875 -5.046875 L 1.796875 -3.5 L 3.71875 -3.5 L 3.71875 -2.546875 L 1.796875 -2.546875 L 1.796875 0 L 0.59375 0 L 0.59375 -6.015625 Z M 4.3125 -6.015625 "/></g></g></g><g fill="#ffffff" fill-opacity="1"><g transform="translate(217.013723, 217.559454)"><g><path d="M 4.6875 -6.015625 L 4.6875 -5.046875 L 3.09375 -5.046875 L 3.09375 0 L 1.875 0 L 1.875 -5.046875 L 0.28125 -5.046875 L 0.28125 -6.015625 Z M 4.6875 -6.015625 "/></g></g></g><g fill="#ffffff" fill-opacity="1"><g transform="translate(223.040264, 217.559454)"><g><path d="M 8.640625 -6.015625 L 6.953125 0 L 5.53125 0 L 4.40625 -4.28125 L 3.21875 0 L 1.8125 0.015625 L 0.1875 -6.015625 L 1.484375 -6.015625 L 2.546875 -1.34375 L 3.765625 -6.015625 L 5.109375 -6.015625 L 6.265625 -1.375 L 7.34375 -6.015625 Z M 8.640625 -6.015625 "/></g></g></g><g fill="#ffffff" fill-opacity="1"><g transform="translate(232.920701, 217.559454)"><g><path d="M 4.28125 -1.140625 L 1.890625 -1.140625 L 1.484375 0 L 0.21875 0 L 2.390625 -6.03125 L 3.796875 -6.03125 L 5.953125 0 L 4.6875 0 Z M 3.953125 -2.109375 L 3.09375 -4.625 L 2.21875 -2.109375 Z M 3.953125 -2.109375 "/></g></g></g><g fill="#ffffff" fill-opacity="1"><g transform="translate(240.145657, 217.559454)"><g><path d="M 3.703125 0 L 2.375 -2.34375 L 1.796875 -2.34375 L 1.796875 0 L 0.59375 0 L 0.59375 -6.015625 L 2.859375 -6.015625 C 3.316406 -6.015625 3.707031 -5.929688 4.03125 -5.765625 C 4.363281 -5.609375 4.613281 -5.390625 4.78125 -5.109375 C 4.945312 -4.828125 5.03125 -4.515625 5.03125 -4.171875 C 5.03125 -3.773438 4.914062 -3.414062 4.6875 -3.09375 C 4.457031 -2.78125 4.113281 -2.5625 3.65625 -2.4375 L 5.09375 0 Z M 1.796875 -3.25 L 2.8125 -3.25 C 3.132812 -3.25 3.375 -3.328125 3.53125 -3.484375 C 3.695312 -3.640625 3.78125 -3.863281 3.78125 -4.15625 C 3.78125 -4.425781 3.695312 -4.632812 3.53125 -4.78125 C 3.375 -4.9375 3.132812 -5.015625 2.8125 -5.015625 L 1.796875 -5.015625 Z M 1.796875 -3.25 "/></g></g></g><g fill="#ffffff" fill-opacity="1"><g transform="translate(246.723986, 217.559454)"><g><path d="M 1.796875 -5.046875 L 1.796875 -3.53125 L 3.828125 -3.53125 L 3.828125 -2.578125 L 1.796875 -2.578125 L 1.796875 -0.984375 L 4.09375 -0.984375 L 4.09375 0 L 0.59375 0 L 0.59375 -6.03125 L 4.09375 -6.03125 L 4.09375 -5.046875 Z M 1.796875 -5.046875 "/></g></g></g><g fill="#ffffff" fill-opacity="1"><g transform="translate(252.362557, 217.559454)"><g/></g></g><g fill="#ffffff" fill-opacity="1"><g transform="translate(255.46635, 217.559454)"><g><path d="M 2.671875 0.0625 C 2.253906 0.0625 1.875 -0.0078125 1.53125 -0.15625 C 1.195312 -0.300781 0.929688 -0.507812 0.734375 -0.78125 C 0.546875 -1.050781 0.445312 -1.367188 0.4375 -1.734375 L 1.734375 -1.734375 C 1.753906 -1.484375 1.84375 -1.285156 2 -1.140625 C 2.15625 -1.003906 2.367188 -0.9375 2.640625 -0.9375 C 2.929688 -0.9375 3.15625 -1.003906 3.3125 -1.140625 C 3.46875 -1.273438 3.546875 -1.453125 3.546875 -1.671875 C 3.546875 -1.847656 3.488281 -1.992188 3.375 -2.109375 C 3.269531 -2.222656 3.132812 -2.3125 2.96875 -2.375 C 2.8125 -2.4375 2.585938 -2.507812 2.296875 -2.59375 C 1.910156 -2.707031 1.59375 -2.820312 1.34375 -2.9375 C 1.101562 -3.050781 0.894531 -3.21875 0.71875 -3.4375 C 0.539062 -3.664062 0.453125 -3.972656 0.453125 -4.359375 C 0.453125 -4.710938 0.539062 -5.019531 0.71875 -5.28125 C 0.894531 -5.550781 1.144531 -5.753906 1.46875 -5.890625 C 1.789062 -6.035156 2.160156 -6.109375 2.578125 -6.109375 C 3.203125 -6.109375 3.707031 -5.957031 4.09375 -5.65625 C 4.476562 -5.351562 4.691406 -4.929688 4.734375 -4.390625 L 3.40625 -4.390625 C 3.394531 -4.597656 3.304688 -4.769531 3.140625 -4.90625 C 2.972656 -5.039062 2.757812 -5.109375 2.5 -5.109375 C 2.257812 -5.109375 2.066406 -5.046875 1.921875 -4.921875 C 1.785156 -4.804688 1.71875 -4.632812 1.71875 -4.40625 C 1.71875 -4.238281 1.769531 -4.101562 1.875 -4 C 1.976562 -3.894531 2.109375 -3.804688 2.265625 -3.734375 C 2.429688 -3.671875 2.65625 -3.597656 2.9375 -3.515625 C 3.332031 -3.398438 3.648438 -3.285156 3.890625 -3.171875 C 4.140625 -3.054688 4.351562 -2.878906 4.53125 -2.640625 C 4.707031 -2.410156 4.796875 -2.113281 4.796875 -1.75 C 4.796875 -1.425781 4.710938 -1.125 4.546875 -0.84375 C 4.378906 -0.570312 4.132812 -0.351562 3.8125 -0.1875 C 3.5 -0.0195312 3.117188 0.0625 2.671875 0.0625 Z M 2.671875 0.0625 "/></g></g></g><g fill="#ffffff" fill-opacity="1"><g transform="translate(261.768782, 217.559454)"><g><path d="M 3.390625 0.0625 C 2.828125 0.0625 2.304688 -0.0664062 1.828125 -0.328125 C 1.359375 -0.597656 0.984375 -0.96875 0.703125 -1.4375 C 0.429688 -1.90625 0.296875 -2.4375 0.296875 -3.03125 C 0.296875 -3.613281 0.429688 -4.140625 0.703125 -4.609375 C 0.984375 -5.078125 1.359375 -5.441406 1.828125 -5.703125 C 2.304688 -5.972656 2.828125 -6.109375 3.390625 -6.109375 C 3.960938 -6.109375 4.484375 -5.972656 4.953125 -5.703125 C 5.421875 -5.441406 5.789062 -5.078125 6.0625 -4.609375 C 6.332031 -4.140625 6.46875 -3.613281 6.46875 -3.03125 C 6.46875 -2.4375 6.332031 -1.90625 6.0625 -1.4375 C 5.789062 -0.96875 5.414062 -0.597656 4.9375 -0.328125 C 4.46875 -0.0664062 3.953125 0.0625 3.390625 0.0625 Z M 3.390625 -1.015625 C 3.753906 -1.015625 4.070312 -1.097656 4.34375 -1.265625 C 4.625 -1.429688 4.84375 -1.664062 5 -1.96875 C 5.15625 -2.269531 5.234375 -2.625 5.234375 -3.03125 C 5.234375 -3.425781 5.15625 -3.773438 5 -4.078125 C 4.84375 -4.378906 4.625 -4.609375 4.34375 -4.765625 C 4.070312 -4.929688 3.753906 -5.015625 3.390625 -5.015625 C 3.023438 -5.015625 2.703125 -4.929688 2.421875 -4.765625 C 2.148438 -4.609375 1.9375 -4.378906 1.78125 -4.078125 C 1.625 -3.773438 1.546875 -3.425781 1.546875 -3.03125 C 1.546875 -2.625 1.625 -2.269531 1.78125 -1.96875 C 1.9375 -1.664062 2.148438 -1.429688 2.421875 -1.265625 C 2.703125 -1.097656 3.023438 -1.015625 3.390625 -1.015625 Z M 3.390625 -1.015625 "/></g></g></g><g fill="#ffffff" fill-opacity="1"><g transform="translate(269.58863, 217.559454)"><g><path d="M 1.796875 -0.953125 L 3.78125 -0.953125 L 3.78125 0 L 0.59375 0 L 0.59375 -6.015625 L 1.796875 -6.015625 Z M 1.796875 -0.953125 "/></g></g></g><g fill="#ffffff" fill-opacity="1"><g transform="translate(274.597817, 217.559454)"><g><path d="M 1.78125 -6.015625 L 1.78125 -2.296875 C 1.78125 -1.890625 1.882812 -1.578125 2.09375 -1.359375 C 2.3125 -1.140625 2.613281 -1.03125 3 -1.03125 C 3.394531 -1.03125 3.695312 -1.140625 3.90625 -1.359375 C 4.113281 -1.578125 4.21875 -1.890625 4.21875 -2.296875 L 4.21875 -6.015625 L 5.4375 -6.015625 L 5.4375 -2.296875 C 5.4375 -1.785156 5.328125 -1.351562 5.109375 -1 C 4.890625 -0.644531 4.59375 -0.378906 4.21875 -0.203125 C 3.851562 -0.0234375 3.441406 0.0625 2.984375 0.0625 C 2.535156 0.0625 2.128906 -0.0234375 1.765625 -0.203125 C 1.398438 -0.378906 1.109375 -0.644531 0.890625 -1 C 0.679688 -1.351562 0.578125 -1.785156 0.578125 -2.296875 L 0.578125 -6.015625 Z M 1.78125 -6.015625 "/></g></g></g><g fill="#ffffff" fill-opacity="1"><g transform="translate(281.658963, 217.559454)"><g><path d="M 4.6875 -6.015625 L 4.6875 -5.046875 L 3.09375 -5.046875 L 3.09375 0 L 1.875 0 L 1.875 -5.046875 L 0.28125 -5.046875 L 0.28125 -6.015625 Z M 4.6875 -6.015625 "/></g></g></g><g fill="#ffffff" fill-opacity="1"><g transform="translate(287.685501, 217.559454)"><g><path d="M 1.796875 -6.015625 L 1.796875 0 L 0.59375 0 L 0.59375 -6.015625 Z M 1.796875 -6.015625 "/></g></g></g><g fill="#ffffff" fill-opacity="1"><g transform="translate(291.134167, 217.559454)"><g><path d="M 3.390625 0.0625 C 2.828125 0.0625 2.304688 -0.0664062 1.828125 -0.328125 C 1.359375 -0.597656 0.984375 -0.96875 0.703125 -1.4375 C 0.429688 -1.90625 0.296875 -2.4375 0.296875 -3.03125 C 0.296875 -3.613281 0.429688 -4.140625 0.703125 -4.609375 C 0.984375 -5.078125 1.359375 -5.441406 1.828125 -5.703125 C 2.304688 -5.972656 2.828125 -6.109375 3.390625 -6.109375 C 3.960938 -6.109375 4.484375 -5.972656 4.953125 -5.703125 C 5.421875 -5.441406 5.789062 -5.078125 6.0625 -4.609375 C 6.332031 -4.140625 6.46875 -3.613281 6.46875 -3.03125 C 6.46875 -2.4375 6.332031 -1.90625 6.0625 -1.4375 C 5.789062 -0.96875 5.414062 -0.597656 4.9375 -0.328125 C 4.46875 -0.0664062 3.953125 0.0625 3.390625 0.0625 Z M 3.390625 -1.015625 C 3.753906 -1.015625 4.070312 -1.097656 4.34375 -1.265625 C 4.625 -1.429688 4.84375 -1.664062 5 -1.96875 C 5.15625 -2.269531 5.234375 -2.625 5.234375 -3.03125 C 5.234375 -3.425781 5.15625 -3.773438 5 -4.078125 C 4.84375 -4.378906 4.625 -4.609375 4.34375 -4.765625 C 4.070312 -4.929688 3.753906 -5.015625 3.390625 -5.015625 C 3.023438 -5.015625 2.703125 -4.929688 2.421875 -4.765625 C 2.148438 -4.609375 1.9375 -4.378906 1.78125 -4.078125 C 1.625 -3.773438 1.546875 -3.425781 1.546875 -3.03125 C 1.546875 -2.625 1.625 -2.269531 1.78125 -1.96875 C 1.9375 -1.664062 2.148438 -1.429688 2.421875 -1.265625 C 2.703125 -1.097656 3.023438 -1.015625 3.390625 -1.015625 Z M 3.390625 -1.015625 "/></g></g></g><g fill="#ffffff" fill-opacity="1"><g transform="translate(298.95402, 217.559454)"><g><path d="M 5.75 0 L 4.53125 0 L 1.796875 -4.125 L 1.796875 0 L 0.59375 0 L 0.59375 -6.03125 L 1.796875 -6.03125 L 4.53125 -1.890625 L 4.53125 -6.03125 L 5.75 -6.03125 Z M 5.75 0 "/></g></g></g><g fill="#ffffff" fill-opacity="1"><g transform="translate(306.342799, 217.559454)"><g><path d="M 2.671875 0.0625 C 2.253906 0.0625 1.875 -0.0078125 1.53125 -0.15625 C 1.195312 -0.300781 0.929688 -0.507812 0.734375 -0.78125 C 0.546875 -1.050781 0.445312 -1.367188 0.4375 -1.734375 L 1.734375 -1.734375 C 1.753906 -1.484375 1.84375 -1.285156 2 -1.140625 C 2.15625 -1.003906 2.367188 -0.9375 2.640625 -0.9375 C 2.929688 -0.9375 3.15625 -1.003906 3.3125 -1.140625 C 3.46875 -1.273438 3.546875 -1.453125 3.546875 -1.671875 C 3.546875 -1.847656 3.488281 -1.992188 3.375 -2.109375 C 3.269531 -2.222656 3.132812 -2.3125 2.96875 -2.375 C 2.8125 -2.4375 2.585938 -2.507812 2.296875 -2.59375 C 1.910156 -2.707031 1.59375 -2.820312 1.34375 -2.9375 C 1.101562 -3.050781 0.894531 -3.21875 0.71875 -3.4375 C 0.539062 -3.664062 0.453125 -3.972656 0.453125 -4.359375 C 0.453125 -4.710938 0.539062 -5.019531 0.71875 -5.28125 C 0.894531 -5.550781 1.144531 -5.753906 1.46875 -5.890625 C 1.789062 -6.035156 2.160156 -6.109375 2.578125 -6.109375 C 3.203125 -6.109375 3.707031 -5.957031 4.09375 -5.65625 C 4.476562 -5.351562 4.691406 -4.929688 4.734375 -4.390625 L 3.40625 -4.390625 C 3.394531 -4.597656 3.304688 -4.769531 3.140625 -4.90625 C 2.972656 -5.039062 2.757812 -5.109375 2.5 -5.109375 C 2.257812 -5.109375 2.066406 -5.046875 1.921875 -4.921875 C 1.785156 -4.804688 1.71875 -4.632812 1.71875 -4.40625 C 1.71875 -4.238281 1.769531 -4.101562 1.875 -4 C 1.976562 -3.894531 2.109375 -3.804688 2.265625 -3.734375 C 2.429688 -3.671875 2.65625 -3.597656 2.9375 -3.515625 C 3.332031 -3.398438 3.648438 -3.285156 3.890625 -3.171875 C 4.140625 -3.054688 4.351562 -2.878906 4.53125 -2.640625 C 4.707031 -2.410156 4.796875 -2.113281 4.796875 -1.75 C 4.796875 -1.425781 4.710938 -1.125 4.546875 -0.84375 C 4.378906 -0.570312 4.132812 -0.351562 3.8125 -0.1875 C 3.5 -0.0195312 3.117188 0.0625 2.671875 0.0625 Z M 2.671875 0.0625 "/></g></g></g><g fill="#5ce1e6" fill-opacity="1"><g transform="translate(268.686186, 185.689388)"><g><path d="M -5.953125 -7.0625 C -5.578125 -7.863281 -5.085938 -8.488281 -4.484375 -8.9375 C -3.890625 -9.394531 -3.226562 -9.648438 -2.5 -9.703125 C -1.78125 -9.753906 -1.046875 -9.609375 -0.296875 -9.265625 C 0.453125 -8.910156 1.035156 -8.4375 1.453125 -7.84375 C 1.878906 -7.25 2.109375 -6.578125 2.140625 -5.828125 C 2.179688 -5.078125 2.015625 -4.304688 1.640625 -3.515625 L 0.3125 -0.671875 L -7.28125 -4.21875 Z M 0 -4.140625 C 0.320312 -4.835938 0.378906 -5.472656 0.171875 -6.046875 C -0.0234375 -6.617188 -0.472656 -7.070312 -1.171875 -7.40625 C -1.867188 -7.726562 -2.503906 -7.78125 -3.078125 -7.5625 C -3.648438 -7.351562 -4.097656 -6.898438 -4.421875 -6.203125 L -4.84375 -5.328125 L -0.421875 -3.265625 Z M 0 -4.140625 "/></g></g></g><g fill="#5ce1e6" fill-opacity="1"><g transform="translate(273.745615, 176.358852)"><g><path d="M -1.90625 -8.609375 L 0.640625 -4.296875 C 0.898438 -3.867188 1.203125 -3.597656 1.546875 -3.484375 C 1.898438 -3.378906 2.28125 -3.445312 2.6875 -3.6875 C 3.101562 -3.9375 3.351562 -4.238281 3.4375 -4.59375 C 3.519531 -4.957031 3.429688 -5.351562 3.171875 -5.78125 L 0.625 -10.09375 L 2.375 -11.140625 L 4.921875 -6.84375 C 5.304688 -6.195312 5.492188 -5.570312 5.484375 -4.96875 C 5.472656 -4.363281 5.300781 -3.8125 4.96875 -3.3125 C 4.644531 -2.8125 4.203125 -2.394531 3.640625 -2.0625 C 3.066406 -1.71875 2.488281 -1.519531 1.90625 -1.46875 C 1.332031 -1.425781 0.78125 -1.550781 0.25 -1.84375 C -0.269531 -2.144531 -0.722656 -2.617188 -1.109375 -3.265625 L -3.65625 -7.5625 Z M -1.90625 -8.609375 "/></g></g></g><g fill="#5ce1e6" fill-opacity="1"><g transform="translate(282.877226, 171.481298)"><g><path d="M 4.6875 0.453125 C 3.894531 0.390625 3.1875 0.148438 2.5625 -0.265625 C 1.9375 -0.679688 1.457031 -1.226562 1.125 -1.90625 C 0.789062 -2.59375 0.660156 -3.347656 0.734375 -4.171875 C 0.796875 -4.984375 1.046875 -5.695312 1.484375 -6.3125 C 1.921875 -6.9375 2.476562 -7.40625 3.15625 -7.71875 C 3.84375 -8.03125 4.582031 -8.15625 5.375 -8.09375 C 6.164062 -8.03125 6.867188 -7.789062 7.484375 -7.375 C 8.109375 -6.957031 8.582031 -6.40625 8.90625 -5.71875 C 9.226562 -5.039062 9.359375 -4.296875 9.296875 -3.484375 C 9.222656 -2.660156 8.96875 -1.9375 8.53125 -1.3125 C 8.101562 -0.695312 7.550781 -0.234375 6.875 0.078125 C 6.207031 0.390625 5.476562 0.515625 4.6875 0.453125 Z M 4.828125 -1.40625 C 5.492188 -1.351562 6.046875 -1.53125 6.484375 -1.9375 C 6.921875 -2.34375 7.171875 -2.914062 7.234375 -3.65625 C 7.285156 -4.394531 7.128906 -5 6.765625 -5.46875 C 6.398438 -5.945312 5.882812 -6.210938 5.21875 -6.265625 C 4.539062 -6.316406 3.984375 -6.140625 3.546875 -5.734375 C 3.109375 -5.328125 2.863281 -4.75 2.8125 -4 C 2.75 -3.257812 2.898438 -2.65625 3.265625 -2.1875 C 3.628906 -1.71875 4.148438 -1.457031 4.828125 -1.40625 Z M 4.828125 -1.40625 "/></g></g></g><path stroke-linecap="butt" transform="matrix(0.75, 0, 0, 0.75, 93.94724, 213.904044)" fill="none" stroke-linejoin="miter" d="M -0.00256991 1.997733 L 129.174522 1.997733 " stroke="#5ce1e6" stroke-width="4" stroke-opacity="1" stroke-miterlimit="4"/></svg>